<?xml version="1.0" encoding="UTF-8"?>
<!DOCTYPE svg PUBLIC "-//W3C//DTD SVG 1.1//EN" "http://www.w3.org/Graphics/SVG/1.1/DTD/svg11.dtd">
<svg xmlns="http://www.w3.org/2000/svg" version="1.1" width="256px" height="256px" style="shape-rendering:geometricPrecision; text-rendering:geometricPrecision; image-rendering:optimizeQuality; fill-rule:evenodd; clip-rule:evenodd" xmlns:xlink="http://www.w3.org/1999/xlink">
<g><path style="opacity:0.014" fill="#fefefe" d="M 251.5,35.5 C 249.66,33.832 247.66,32.332 245.5,31C 165.833,30.3333 86.1667,30.3333 6.5,31C 4.80428,32.1764 3.13761,33.343 1.5,34.5C 1.5,23.8333 1.5,13.1667 1.5,2.5C 84.8333,2.5 168.167,2.5 251.5,2.5C 251.5,13.5 251.5,24.5 251.5,35.5 Z"/></g>
<g><path style="opacity:1" fill="#2f859d" d="M 251.5,35.5 C 250.555,54.5409 250.222,73.8742 250.5,93.5C 167.5,93.5 84.5,93.5 1.5,93.5C 1.4579,73.6546 1.4579,53.988 1.5,34.5C 3.13761,33.343 4.80428,32.1764 6.5,31C 86.1667,30.3333 165.833,30.3333 245.5,31C 247.66,32.332 249.66,33.832 251.5,35.5 Z"/></g>
<g><path style="opacity:1" fill="#0792ac" d="M 243.5,92.5 C 243.667,76.4965 243.5,60.4965 243,44.5C 242.241,42.9371 241.074,41.9371 239.5,41.5C 237.862,40.1678 236.196,38.8345 234.5,37.5C 162.167,37.5 89.8333,37.5 17.5,37.5C 14.5877,39.0663 11.921,41.0663 9.5,43.5C 8.50055,59.8197 8.16722,76.1531 8.5,92.5C 7.5,92.5 6.5,92.5 5.5,92.5C 6.33494,80.6554 6.33494,68.8221 5.5,57C 5.96698,51.8302 6.46698,46.6635 7,41.5C 8.16667,39 10,37.1667 12.5,36C 50.4627,34.8485 88.4627,34.3485 126.5,34.5C 164.537,34.3485 202.537,34.8485 240.5,36C 243.663,37.4798 245.496,39.9798 246,43.5C 245.855,59.9032 246.689,76.0699 248.5,92C 246.866,92.4935 245.199,92.6602 243.5,92.5 Z"/></g>
<g><path style="opacity:0.585" fill="#0d0e0e" d="M 1.5,34.5 C 1.4579,53.988 1.4579,73.6546 1.5,93.5C 1.5,94.5 1.5,95.5 1.5,96.5C 1.16945,117.34 1.50279,138.007 2.5,158.5C 1.76589,159.708 1.43255,161.041 1.5,162.5C 1.16988,180.674 1.50322,198.674 2.5,216.5C 3.1256,219.638 4.79227,222.138 7.5,224C 86.5,224.667 165.5,224.667 244.5,224C 247.023,222.64 249.023,220.807 250.5,218.5C 251.833,199.833 251.833,181.167 250.5,162.5C 250.5,161.167 250.5,159.833 250.5,158.5C 250.5,138.167 250.5,117.833 250.5,97.5C 250.5,97.1667 250.5,96.8333 250.5,96.5C 250.5,95.5 250.5,94.5 250.5,93.5C 250.222,73.8742 250.555,54.5409 251.5,35.5C 253.342,37.1898 254.675,39.1898 255.5,41.5C 255.5,102.167 255.5,162.833 255.5,223.5C 254.687,225.261 253.687,226.928 252.5,228.5C 252.265,227.903 251.765,227.57 251,227.5C 247.335,230 243.335,231.667 239,232.5C 161.675,231.186 84.5085,231.186 7.5,232.5C 5.29719,232.396 3.29719,231.73 1.5,230.5C 0.833333,230.167 0.166667,229.833 -0.5,229.5C -0.5,164.833 -0.5,100.167 -0.5,35.5C 0.166667,35.1667 0.833333,34.8333 1.5,34.5 Z"/></g>
<g><path style="opacity:1" fill="#34ba4d" d="M 247.5,163.5 C 248.791,163.263 249.791,163.596 250.5,164.5C 248.61,169.905 247.61,175.738 247.5,182C 248.142,189.673 248.475,197.339 248.5,205C 247.874,205.75 247.374,206.584 247,207.5C 246.667,207.167 246.333,206.833 246,206.5C 245.682,213.151 242.349,217.485 236,219.5C 163.276,219.491 90.2763,219.491 17,219.5C 13.4334,217.963 10.2667,215.796 7.5,213C 8.05596,212.617 8.38929,212.117 8.5,211.5C 9.0128,207.771 9.84613,204.104 11,200.5C 13.1385,201.769 15.3052,201.769 17.5,200.5C 17.2907,199.914 16.9574,199.414 16.5,199C 19.5,198 22.5,197 25.5,196C 24.8333,195.333 24.1667,194.667 23.5,194C 31.4251,191.631 39.4251,189.631 47.5,188C 46.6721,187.085 45.6721,186.419 44.5,186C 47.8333,185.667 51.1667,185.333 54.5,185C 53.5,184.667 52.5,184.333 51.5,184C 101.167,183.333 150.833,183.333 200.5,184C 199.5,184.333 198.5,184.667 197.5,185C 200.833,185.333 204.167,185.667 207.5,186C 206.328,186.419 205.328,187.085 204.5,188C 212.575,189.631 220.575,191.631 228.5,194C 227.833,194.667 227.167,195.333 226.5,196C 229.5,197 232.5,198 235.5,199C 235.043,199.414 234.709,199.914 234.5,200.5C 236.743,201.474 239.076,201.808 241.5,201.5C 241.737,198.788 241.737,196.288 241.5,194C 242.5,191.667 244.167,190 246.5,189C 245.516,180.707 244.849,172.541 244.5,164.5C 245.791,164.737 246.791,164.404 247.5,163.5 Z"/></g>
<g><path style="opacity:1" fill="#54803f" d="M 1.5,162.5 C 84.5,162.5 167.5,162.5 250.5,162.5C 251.833,181.167 251.833,199.833 250.5,218.5C 250.5,200.5 250.5,182.5 250.5,164.5C 249.791,163.596 248.791,163.263 247.5,163.5C 166.5,163.5 85.5,163.5 4.5,163.5C 2.51367,180.802 1.847,198.468 2.5,216.5C 1.50322,198.674 1.16988,180.674 1.5,162.5 Z"/></g>
<g><path style="opacity:1" fill="#2db847" d="M 4.5,163.5 C 85.5,163.5 166.5,163.5 247.5,163.5C 246.791,164.404 245.791,164.737 244.5,164.5C 244.849,172.541 245.516,180.707 246.5,189C 244.167,190 242.5,191.667 241.5,194C 241.737,196.288 241.737,198.788 241.5,201.5C 239.076,201.808 236.743,201.474 234.5,200.5C 234.709,199.914 235.043,199.414 235.5,199C 232.5,198 229.5,197 226.5,196C 227.167,195.333 227.833,194.667 228.5,194C 220.575,191.631 212.575,189.631 204.5,188C 205.328,187.085 206.328,186.419 207.5,186C 204.167,185.667 200.833,185.333 197.5,185C 198.5,184.667 199.5,184.333 200.5,184C 150.833,183.333 101.167,183.333 51.5,184C 52.5,184.333 53.5,184.667 54.5,185C 51.1667,185.333 47.8333,185.667 44.5,186C 45.6721,186.419 46.6721,187.085 47.5,188C 39.4251,189.631 31.4251,191.631 23.5,194C 24.1667,194.667 24.8333,195.333 25.5,196C 22.5,197 19.5,198 16.5,199C 16.9574,199.414 17.2907,199.914 17.5,200.5C 15.3052,201.769 13.1385,201.769 11,200.5C 9.84613,204.104 9.0128,207.771 8.5,211.5C 6.76733,210.992 6.434,210.159 7.5,209C 6.42575,208.261 5.75908,207.261 5.5,206C 5.85771,198.836 6.52438,191.836 7.5,185C 5.32146,184.558 4.6548,183.558 5.5,182C 4.29582,180.647 3.62915,178.981 3.5,177C 4.1644,172.521 4.49773,168.021 4.5,163.5 Z"/></g>
<g><path style="opacity:1" fill="#cf2d39" d="M 2.5,158.5 C 5.5,158.5 8.5,158.5 11.5,158.5C 87.8333,158.5 164.167,158.5 240.5,158.5C 243.833,158.5 247.167,158.5 250.5,158.5C 250.5,159.833 250.5,161.167 250.5,162.5C 167.5,162.5 84.5,162.5 1.5,162.5C 1.43255,161.041 1.76589,159.708 2.5,158.5 Z"/></g>
<g><path style="opacity:1" fill="#eeeeee" d="M 242.5,97.5 C 245.167,97.5 247.833,97.5 250.5,97.5C 250.5,117.833 250.5,138.167 250.5,158.5C 247.167,158.5 243.833,158.5 240.5,158.5C 241.267,154.585 241.767,150.585 242,146.5C 242.278,130.085 242.445,113.751 242.5,97.5 Z"/></g>
<g><path style="opacity:1" fill="#fefefe" d="M 11.5,97.5 C 88.5,97.5 165.5,97.5 242.5,97.5C 242.445,113.751 242.278,130.085 242,146.5C 241.767,150.585 241.267,154.585 240.5,158.5C 164.167,158.5 87.8333,158.5 11.5,158.5C 10.1781,138.179 10.1781,117.846 11.5,97.5 Z"/></g>
<g><path style="opacity:1" fill="#f1f1f1" d="M 11.5,97.5 C 10.1781,117.846 10.1781,138.179 11.5,158.5C 8.5,158.5 5.5,158.5 2.5,158.5C 2.5,138.167 2.5,117.833 2.5,97.5C 5.5,97.5 8.5,97.5 11.5,97.5 Z"/></g>
<g><path style="opacity:0.69" fill="#beabac" d="M 1.5,96.5 C 84.5,96.5 167.5,96.5 250.5,96.5C 250.5,96.8333 250.5,97.1667 250.5,97.5C 247.833,97.5 245.167,97.5 242.5,97.5C 165.5,97.5 88.5,97.5 11.5,97.5C 8.5,97.5 5.5,97.5 2.5,97.5C 2.5,117.833 2.5,138.167 2.5,158.5C 1.50279,138.007 1.16945,117.34 1.5,96.5 Z"/></g>
<g><path style="opacity:0.992" fill="#d42134" d="M 1.5,93.5 C 84.5,93.5 167.5,93.5 250.5,93.5C 250.5,94.5 250.5,95.5 250.5,96.5C 167.5,96.5 84.5,96.5 1.5,96.5C 1.5,95.5 1.5,94.5 1.5,93.5 Z"/></g>
<g><path style="opacity:1" fill="#1caac1" d="M 17.5,37.5 C 22.5896,39.1437 27.923,40.1437 33.5,40.5C 17.5701,50.7183 15.2368,63.5516 26.5,79C 34.9122,85.0837 43.9122,86.0837 53.5,82C 39.2454,79.9861 32.7454,71.8194 34,57.5C 37.0676,47.4405 43.9009,42.2739 54.5,42C 53.4734,41.4867 52.4734,40.9867 51.5,40.5C 67.6715,39.1732 84.0049,39.1732 100.5,40.5C 99.624,41.2508 98.624,41.7508 97.5,42C 98.8932,43.1711 99.7265,44.6711 100,46.5C 102.362,45.6476 104.195,44.1476 105.5,42C 104.833,41.6667 104.167,41.3333 103.5,41C 108.5,40.3333 113.5,40.3333 118.5,41C 117.692,41.3076 117.025,41.8076 116.5,42.5C 118.021,44.2909 119.854,45.6242 122,46.5C 122.273,44.6711 123.107,43.1711 124.5,42C 127.833,41.3333 131.167,41.3333 134.5,42C 135.893,43.1711 136.727,44.6711 137,46.5C 138.425,45.7877 139.925,45.621 141.5,46C 141.043,45.586 140.709,45.086 140.5,44.5C 141.243,43.8182 141.909,43.1515 142.5,42.5C 174.982,41.5192 207.315,41.1859 239.5,41.5C 241.074,41.9371 242.241,42.9371 243,44.5C 243.5,60.4965 243.667,76.4965 243.5,92.5C 165.167,92.5 86.8333,92.5 8.5,92.5C 8.16722,76.1531 8.50055,59.8197 9.5,43.5C 11.921,41.0663 14.5877,39.0663 17.5,37.5 Z"/></g>
<g><path style="opacity:1" fill="#e5f4f7" d="M 138.5,76.5 C 139.186,77.8484 140.186,79.015 141.5,80C 140.888,81.3033 140.554,82.4699 140.5,83.5C 139.5,82.1667 138.5,82.1667 137.5,83.5C 136.738,82.3717 136.071,81.2051 135.5,80C 137.426,79.5776 138.426,78.4109 138.5,76.5 Z"/></g>
<g><path style="opacity:1" fill="#f2f9fb" d="M 101.5,77.5 C 102.309,78.4687 103.309,79.3021 104.5,80C 103.809,81.0674 103.309,82.2341 103,83.5C 102,82.1667 101,82.1667 100,83.5C 99.6905,82.2341 99.1905,81.0674 98.5,80C 99.9423,79.6232 100.942,78.7899 101.5,77.5 Z"/></g>
<g><path style="opacity:1" fill="#ecf7f9" d="M 63.5,76.5 C 66.9376,78.175 67.771,80.5083 66,83.5C 65,82.1667 64,82.1667 63,83.5C 62.6905,82.2341 62.1905,81.0674 61.5,80C 62.9733,79.2904 63.6399,78.1238 63.5,76.5 Z"/></g>
<g><path style="opacity:1" fill="#edf7f9" d="M 119.5,77.5 C 120.683,78.5045 122.016,79.3378 123.5,80C 122.809,81.0674 122.309,82.2341 122,83.5C 120.575,82.7877 119.075,82.621 117.5,83C 118.833,82 118.833,81 117.5,80C 118.756,79.5831 119.423,78.7498 119.5,77.5 Z"/></g>
<g><path style="opacity:1" fill="#ecf7f9" d="M 82.5,76.5 C 83.6043,77.9974 84.6043,79.664 85.5,81.5C 85.1667,82.1667 84.8333,82.8333 84.5,83.5C 82.6969,82.8632 81.3636,81.6965 80.5,80C 81.9733,79.2904 82.6399,78.1238 82.5,76.5 Z"/></g>
<g><path style="opacity:1" fill="#e9f6f8" d="M 101.5,58.5 C 102.534,59.6871 103.867,60.5204 105.5,61C 104.027,61.7096 103.36,62.8762 103.5,64.5C 102.167,64.5 100.833,64.5 99.5,64.5C 99.6399,62.8762 98.9733,61.7096 97.5,61C 99.3197,60.7996 100.653,59.9663 101.5,58.5 Z"/></g>
<g><path style="opacity:1" fill="#e3f3f6" d="M 138.5,58.5 C 139.534,59.6871 140.867,60.5204 142.5,61C 141.833,61.6667 141.167,62.3333 140.5,63C 141.451,63.7175 141.617,64.5509 141,65.5C 139.348,64.783 137.848,64.4496 136.5,64.5C 137.668,63.0944 137.335,61.9277 135.5,61C 136.942,60.6232 137.942,59.7899 138.5,58.5 Z"/></g>
<g><path style="opacity:1" fill="#edf7f9" d="M 119.5,58.5 C 120.534,59.6871 121.867,60.5204 123.5,61C 122.663,62.0113 122.33,63.1779 122.5,64.5C 119.755,64.627 117.755,63.4603 116.5,61C 118.119,60.7645 119.119,59.9311 119.5,58.5 Z"/></g>
<g><path style="opacity:1" fill="#e6f5f7" d="M 82.5,58.5 C 83.5336,59.6871 84.867,60.5204 86.5,61C 85.7734,62.3988 85.2734,63.8988 85,65.5C 83.3476,64.783 81.8476,64.4496 80.5,64.5C 81.6682,63.0944 81.3348,61.9277 79.5,61C 81.1193,60.7645 82.1193,59.9311 82.5,58.5 Z"/></g>
<g><path style="opacity:1" fill="#68cad8" d="M 234.5,37.5 C 236.196,38.8345 237.862,40.1678 239.5,41.5C 207.315,41.1859 174.982,41.5192 142.5,42.5C 141.602,41.8423 140.602,41.1757 139.5,40.5C 171.511,40.1628 203.177,39.1628 234.5,37.5 Z"/></g>
<g><path style="opacity:1" fill="#fafdfd" d="M 51.5,40.5 C 52.4734,40.9867 53.4734,41.4867 54.5,42C 43.9009,42.2739 37.0676,47.4405 34,57.5C 32.7454,71.8194 39.2454,79.9861 53.5,82C 43.9122,86.0837 34.9122,85.0837 26.5,79C 15.2368,63.5516 17.5701,50.7183 33.5,40.5C 39.4677,37.8883 45.4677,37.8883 51.5,40.5 Z"/></g>
<g><path style="opacity:1" fill="#9ddce5" d="M 17.5,37.5 C 89.8333,37.5 162.167,37.5 234.5,37.5C 203.177,39.1628 171.511,40.1628 139.5,40.5C 140.602,41.1757 141.602,41.8423 142.5,42.5C 141.909,43.1515 141.243,43.8182 140.5,44.5C 140.709,45.086 141.043,45.586 141.5,46C 139.925,45.621 138.425,45.7877 137,46.5C 136.727,44.6711 135.893,43.1711 134.5,42C 131.167,41.3333 127.833,41.3333 124.5,42C 123.107,43.1711 122.273,44.6711 122,46.5C 119.854,45.6242 118.021,44.2909 116.5,42.5C 117.025,41.8076 117.692,41.3076 118.5,41C 113.5,40.3333 108.5,40.3333 103.5,41C 104.167,41.3333 104.833,41.6667 105.5,42C 104.195,44.1476 102.362,45.6476 100,46.5C 99.7265,44.6711 98.8932,43.1711 97.5,42C 98.624,41.7508 99.624,41.2508 100.5,40.5C 84.0049,39.1732 67.6715,39.1732 51.5,40.5C 45.4677,37.8883 39.4677,37.8883 33.5,40.5C 27.923,40.1437 22.5896,39.1437 17.5,37.5 Z"/></g>
<g><path style="opacity:1" fill="#34ab4a" d="M 4.5,163.5 C 4.49773,168.021 4.1644,172.521 3.5,177C 3.62915,178.981 4.29582,180.647 5.5,182C 4.6548,183.558 5.32146,184.558 7.5,185C 6.52438,191.836 5.85771,198.836 5.5,206C 5.75908,207.261 6.42575,208.261 7.5,209C 6.434,210.159 6.76733,210.992 8.5,211.5C 8.38929,212.117 8.05596,212.617 7.5,213C 10.2667,215.796 13.4334,217.963 17,219.5C 90.2763,219.491 163.276,219.491 236,219.5C 242.349,217.485 245.682,213.151 246,206.5C 246.333,206.833 246.667,207.167 247,207.5C 247.374,206.584 247.874,205.75 248.5,205C 248.475,197.339 248.142,189.673 247.5,182C 247.61,175.738 248.61,169.905 250.5,164.5C 250.5,182.5 250.5,200.5 250.5,218.5C 249.023,220.807 247.023,222.64 244.5,224C 165.5,224.667 86.5,224.667 7.5,224C 4.79227,222.138 3.1256,219.638 2.5,216.5C 1.847,198.468 2.51367,180.802 4.5,163.5 Z"/></g>
<g><path style="opacity:0.01" fill="#fefefe" d="M 251.5,230.5 C 251.5,237.833 251.5,245.167 251.5,252.5C 168.167,252.5 84.8333,252.5 1.5,252.5C 1.5,245.167 1.5,237.833 1.5,230.5C 3.29719,231.73 5.29719,232.396 7.5,232.5C 86.6656,233.666 165.999,233.832 245.5,233C 247.587,232.208 249.421,231.041 251,229.5C 251.399,229.728 251.565,230.062 251.5,230.5 Z"/></g>
<g><path style="opacity:0.094" fill="#3b3b3c" d="M 252.5,228.5 C 252.672,229.492 252.338,230.158 251.5,230.5C 251.565,230.062 251.399,229.728 251,229.5C 249.421,231.041 247.587,232.208 245.5,233C 165.999,233.832 86.6656,233.666 7.5,232.5C 84.5085,231.186 161.675,231.186 239,232.5C 243.335,231.667 247.335,230 251,227.5C 251.765,227.57 252.265,227.903 252.5,228.5 Z"/></g>
</svg>
