<svg width="364" height="219" viewBox="0 0 364 219" fill="none" xmlns="http://www.w3.org/2000/svg">
<g clip-path="url(#clip0_51_221)">
<rect width="407" height="219" rx="15" fill="#10101ef7"/>
<rect x="25.2413" y="84.4403" width="326.866" height="146.726" rx="3.45025" fill="#19192c" stroke="#5a547c" stroke-width="0.363184"/>
<path d="M25.4229 88.2537C25.4229 86.2479 27.0489 84.6219 29.0548 84.6219H348.294C350.299 84.6219 351.925 86.2479 351.925 88.2537V98.7861H25.4229V88.2537Z" fill="#333047"/>
<rect x="320.147" y="67.3706" width="30.8706" height="11.2587" rx="1.99751" fill="#333047" stroke="#5a547c" stroke-width="0.363184"/>
<rect x="280.56" y="67.3706" width="31.597" height="11.2587" rx="1.99751" fill="#19192c" stroke="#5a547c" stroke-width="0.363184"/>
<rect x="241.699" y="67.3706" width="30.8706" height="11.2587" rx="1.99751" fill="#19192c" stroke="#5a547c" stroke-width="0.363184"/>
<rect x="25.6045" y="67.3706" width="30.8706" height="11.2587" rx="1.99751" fill="#19192c" stroke="#5a547c" stroke-width="0.363184"/>
<path d="M30.3999 34.2218C29.3448 34.2218 28.5315 34.0239 27.96 33.6283C27.3885 33.2375 27.1027 32.688 27.1027 31.9797C27.1027 31.4766 27.2615 31.0468 27.579 30.6902C27.9014 30.3336 28.3459 30.0967 28.9125 29.9795C28.7025 29.8818 28.5217 29.7352 28.3703 29.5399C28.2238 29.3445 28.1505 29.1198 28.1505 28.8658C28.1505 28.5727 28.2311 28.3163 28.3923 28.0964C28.5584 27.8718 28.8099 27.6568 29.147 27.4517C28.7269 27.2807 28.385 26.9925 28.1212 26.5871C27.8623 26.1768 27.7329 25.7005 27.7329 25.1583C27.7329 24.582 27.8525 24.0911 28.0919 23.6856C28.3312 23.2753 28.678 22.9627 29.1323 22.7478C29.5866 22.5329 30.1361 22.4254 30.7809 22.4254C30.9225 22.4254 31.0642 22.4327 31.2058 22.4474C31.3524 22.4572 31.4916 22.4742 31.6235 22.4987C31.7553 22.5182 31.8701 22.5426 31.9678 22.5719H34.7228V23.3559L33.2427 23.5391C33.3893 23.7296 33.5114 23.9592 33.6091 24.2278C33.7068 24.4965 33.7556 24.7944 33.7556 25.1217C33.7556 25.9228 33.4845 26.5602 32.9423 27.034C32.4001 27.503 31.6552 27.7374 30.7076 27.7374C30.4829 27.7374 30.2533 27.7179 30.0189 27.6788C29.7795 27.8107 29.5963 27.9572 29.4693 28.1184C29.3472 28.2796 29.2862 28.4652 29.2862 28.6753C29.2862 28.8316 29.3326 28.9561 29.4254 29.0489C29.5231 29.1418 29.6623 29.2101 29.843 29.2541C30.0237 29.2932 30.2411 29.3127 30.4951 29.3127H31.9092C32.7836 29.3127 33.4528 29.4959 33.9168 29.8622C34.3857 30.2286 34.6202 30.7635 34.6202 31.4668C34.6202 32.3558 34.2587 33.0372 33.5358 33.5111C32.8129 33.9849 31.7676 34.2218 30.3999 34.2218ZM30.4365 33.2693C31.1008 33.2693 31.6503 33.2009 32.0851 33.0641C32.5247 32.9322 32.8519 32.7393 33.0669 32.4853C33.2867 32.2362 33.3966 31.9382 33.3966 31.5914C33.3966 31.269 33.3233 31.0248 33.1768 30.8587C33.0302 30.6975 32.8153 30.59 32.532 30.5363C32.2487 30.4777 31.9019 30.4484 31.4916 30.4484H30.0995C29.738 30.4484 29.4229 30.5046 29.1543 30.6169C28.8856 30.7293 28.678 30.8953 28.5315 31.1151C28.3898 31.335 28.319 31.6085 28.319 31.9358C28.319 32.3705 28.5022 32.7002 28.8685 32.9249C29.2349 33.1545 29.7575 33.2693 30.4365 33.2693ZM30.7516 26.8509C31.3328 26.8509 31.77 26.7043 32.0631 26.4113C32.3562 26.1182 32.5027 25.6908 32.5027 25.129C32.5027 24.5282 32.3537 24.0788 32.0558 23.7809C31.7578 23.478 31.3182 23.3266 30.7369 23.3266C30.1801 23.3266 29.7502 23.4829 29.4474 23.7955C29.1494 24.1033 29.0004 24.5551 29.0004 25.151C29.0004 25.6981 29.1518 26.1182 29.4547 26.4113C29.7575 26.7043 30.1898 26.8509 30.7516 26.8509ZM37.1465 22.5866V30.6169H35.9302V22.5866H37.1465ZM36.553 19.5825C36.7533 19.5825 36.9243 19.6485 37.0659 19.7804C37.2124 19.9074 37.2857 20.1076 37.2857 20.3812C37.2857 20.6498 37.2124 20.8501 37.0659 20.982C36.9243 21.1139 36.7533 21.1798 36.553 21.1798C36.343 21.1798 36.1671 21.1139 36.0255 20.982C35.8887 20.8501 35.8203 20.6498 35.8203 20.3812C35.8203 20.1076 35.8887 19.9074 36.0255 19.7804C36.1671 19.6485 36.343 19.5825 36.553 19.5825ZM41.9442 29.767C42.1445 29.767 42.3496 29.7499 42.5596 29.7157C42.7697 29.6815 42.9406 29.64 43.0725 29.5911V30.5363C42.9309 30.5998 42.7331 30.6535 42.479 30.6975C42.2299 30.7415 41.9857 30.7635 41.7464 30.7635C41.3214 30.7635 40.9355 30.6902 40.5887 30.5436C40.2419 30.3922 39.9635 30.1382 39.7534 29.7816C39.5483 29.4251 39.4457 28.9317 39.4457 28.3016V23.5391H38.3027V22.9456L39.453 22.4694L39.9366 20.7256H40.6693V22.5866H43.0212V23.5391H40.6693V28.265C40.6693 28.7681 40.7841 29.1442 41.0137 29.3933C41.2481 29.6424 41.5583 29.767 41.9442 29.767ZM45.5402 19.2162V22.6232C45.5402 22.8186 45.5354 23.0164 45.5256 23.2167C45.5158 23.4121 45.4987 23.5928 45.4743 23.7589H45.5549C45.721 23.4756 45.931 23.2387 46.185 23.0482C46.4439 22.8528 46.737 22.7063 47.0642 22.6086C47.3915 22.506 47.7383 22.4547 48.1047 22.4547C48.7494 22.4547 49.2867 22.5573 49.7166 22.7624C50.1513 22.9676 50.4762 23.2851 50.6911 23.7149C50.9109 24.1448 51.0208 24.7016 51.0208 25.3855V30.6169H49.8192V25.4661C49.8192 24.7969 49.6653 24.2962 49.3576 23.9641C49.0547 23.6319 48.5882 23.4658 47.9581 23.4658C47.3622 23.4658 46.886 23.5806 46.5294 23.8102C46.1777 24.0349 45.9237 24.367 45.7674 24.8067C45.616 25.2463 45.5402 25.7836 45.5402 26.4186V30.6169H44.324V19.2162H45.5402ZM59.7823 22.5866V30.6169H58.7859L58.61 29.4886H58.5441C58.378 29.767 58.1631 30.0015 57.8993 30.192C57.6355 30.3825 57.3376 30.5241 57.0054 30.6169C56.6782 30.7146 56.3289 30.7635 55.9577 30.7635C55.3227 30.7635 54.7903 30.6609 54.3604 30.4557C53.9306 30.2506 53.6057 29.9331 53.3859 29.5032C53.171 29.0734 53.0635 28.5214 53.0635 27.8473V22.5866H54.2945V27.7594C54.2945 28.4286 54.4459 28.9293 54.7487 29.2614C55.0516 29.5887 55.5132 29.7523 56.1335 29.7523C56.7294 29.7523 57.2033 29.64 57.555 29.4153C57.9115 29.1906 58.168 28.8609 58.3243 28.4262C58.4806 27.9865 58.5587 27.4492 58.5587 26.8142V22.5866H59.7823ZM63.1952 19.2162V22.0664C63.1952 22.3937 63.1855 22.7112 63.1659 23.0189C63.1513 23.3266 63.1391 23.566 63.1293 23.7369H63.1952C63.415 23.3755 63.7325 23.0702 64.1477 22.8211C64.5629 22.5719 65.0929 22.4474 65.7377 22.4474C66.7439 22.4474 67.545 22.7966 68.1409 23.4951C68.7417 24.1887 69.0421 25.2218 69.0421 26.5944C69.0421 27.4981 68.9053 28.2601 68.6318 28.8804C68.3583 29.5008 67.9724 29.9697 67.4742 30.2872C66.9759 30.6047 66.3873 30.7635 65.7084 30.7635C65.0734 30.7635 64.5507 30.6462 64.1404 30.4118C63.735 30.1724 63.4224 29.8818 63.2026 29.5399H63.1073L62.8582 30.6169H61.979V19.2162H63.1952ZM65.5398 23.4658C64.9586 23.4658 64.497 23.5806 64.1551 23.8102C63.8131 24.0349 63.5665 24.3768 63.415 24.836C63.2685 25.2902 63.1952 25.8666 63.1952 26.5651V26.6311C63.1952 27.6422 63.3637 28.4164 63.7008 28.9537C64.0378 29.4861 64.6508 29.7523 65.5398 29.7523C66.2872 29.7523 66.8465 29.4788 67.2177 28.9317C67.5938 28.3846 67.7819 27.6031 67.7819 26.5871C67.7819 25.5516 67.5963 24.7725 67.225 24.2498C66.8587 23.7272 66.297 23.4658 65.5398 23.4658ZM85.6464 30.7635C84.6793 30.7635 83.9026 30.4118 83.3165 29.7084C82.7352 29.0001 82.4445 27.9572 82.4445 26.5798C82.4445 25.1877 82.7401 24.135 83.3311 23.4219C83.927 22.7087 84.711 22.3521 85.6831 22.3521C86.0934 22.3521 86.4524 22.4083 86.7601 22.5207C87.0678 22.6281 87.3316 22.7747 87.5514 22.9603C87.7761 23.1459 87.9666 23.3535 88.1229 23.5831H88.2035C88.1791 23.4316 88.1498 23.2143 88.1156 22.931C88.0863 22.6428 88.0716 22.3766 88.0716 22.1323V19.2162H89.8008V30.6169H88.4526L88.1449 29.5105H88.0716C87.9251 29.745 87.7395 29.9575 87.5148 30.148C87.295 30.3336 87.0312 30.4826 86.7235 30.5949C86.4206 30.7073 86.0616 30.7635 85.6464 30.7635ZM86.13 29.364C86.8676 29.364 87.3878 29.1515 87.6906 28.7266C87.9935 28.3016 88.1498 27.6642 88.1596 26.8142V26.5871C88.1596 25.6786 88.013 24.9825 87.7199 24.4989C87.4269 24.0105 86.892 23.7662 86.1153 23.7662C85.495 23.7662 85.0212 24.0178 84.6939 24.5209C84.3715 25.0191 84.2103 25.7152 84.2103 26.6091C84.2103 27.503 84.3715 28.1868 84.6939 28.6606C85.0212 29.1295 85.4999 29.364 86.13 29.364ZM93.6167 22.506V30.6169H91.8948V22.506H93.6167ZM92.7667 19.3994C93.0305 19.3994 93.2576 19.4702 93.4481 19.6119C93.6435 19.7535 93.7412 19.9977 93.7412 20.3446C93.7412 20.6865 93.6435 20.9307 93.4481 21.0772C93.2576 21.2189 93.0305 21.2897 92.7667 21.2897C92.4932 21.2897 92.2612 21.2189 92.0707 21.0772C91.8851 20.9307 91.7923 20.6865 91.7923 20.3446C91.7923 19.9977 91.8851 19.7535 92.0707 19.6119C92.2612 19.4702 92.4932 19.3994 92.7667 19.3994ZM102.891 26.5431C102.891 27.2172 102.803 27.8156 102.627 28.3382C102.451 28.8609 102.195 29.3029 101.858 29.6644C101.521 30.021 101.116 30.2945 100.642 30.485C100.168 30.6706 99.6331 30.7635 99.0371 30.7635C98.4803 30.7635 97.9698 30.6706 97.5058 30.485C97.0418 30.2945 96.6388 30.021 96.2969 29.6644C95.9598 29.3029 95.6985 28.8609 95.5129 28.3382C95.3273 27.8156 95.2344 27.2172 95.2344 26.5431C95.2344 25.6493 95.3883 24.8921 95.696 24.2718C96.0087 23.6466 96.4532 23.1703 97.0295 22.843C97.6059 22.5158 98.2922 22.3521 99.0884 22.3521C99.8358 22.3521 100.495 22.5158 101.067 22.843C101.638 23.1703 102.085 23.6466 102.408 24.2718C102.73 24.897 102.891 25.6541 102.891 26.5431ZM97.0076 26.5431C97.0076 27.1342 97.0784 27.6397 97.22 28.0598C97.3666 28.4799 97.5913 28.8023 97.8941 29.027C98.197 29.2468 98.5877 29.3567 99.0664 29.3567C99.5451 29.3567 99.9359 29.2468 100.239 29.027C100.542 28.8023 100.764 28.4799 100.905 28.0598C101.047 27.6397 101.118 27.1342 101.118 26.5431C101.118 25.9521 101.047 25.4514 100.905 25.0411C100.764 24.6259 100.542 24.3109 100.239 24.0959C99.9359 23.8761 99.5427 23.7662 99.0591 23.7662C98.346 23.7662 97.8257 24.0056 97.4985 24.4843C97.1712 24.963 97.0076 25.6493 97.0076 26.5431ZM109.945 28.3016C109.945 28.834 109.816 29.2834 109.557 29.6498C109.298 30.0161 108.92 30.2945 108.421 30.485C107.928 30.6706 107.322 30.7635 106.604 30.7635C106.038 30.7635 105.549 30.7219 105.139 30.6389C104.734 30.5607 104.35 30.4386 103.989 30.2725V28.7852C104.375 28.9659 104.807 29.1222 105.286 29.2541C105.769 29.386 106.226 29.4519 106.656 29.4519C107.222 29.4519 107.63 29.364 107.879 29.1882C108.128 29.0074 108.253 28.7681 108.253 28.4701C108.253 28.2943 108.202 28.138 108.099 28.0012C108.001 27.8595 107.816 27.7154 107.542 27.5689C107.274 27.4175 106.878 27.2368 106.355 27.0267C105.842 26.8216 105.41 26.6164 105.058 26.4113C104.707 26.2061 104.44 25.9594 104.26 25.6712C104.079 25.3782 103.989 25.0045 103.989 24.5502C103.989 23.8322 104.272 23.2875 104.839 22.9163C105.41 22.5402 106.165 22.3521 107.103 22.3521C107.601 22.3521 108.07 22.4034 108.509 22.506C108.954 22.6037 109.389 22.7478 109.814 22.9383L109.271 24.2352C108.905 24.074 108.536 23.9421 108.165 23.8395C107.799 23.732 107.425 23.6783 107.044 23.6783C106.599 23.6783 106.26 23.7467 106.026 23.8835C105.796 24.0202 105.681 24.2156 105.681 24.4696C105.681 24.6601 105.737 24.8213 105.85 24.9532C105.962 25.0851 106.155 25.217 106.429 25.3488C106.707 25.4807 107.093 25.6444 107.586 25.8398C108.07 26.0254 108.487 26.2208 108.839 26.4259C109.196 26.6262 109.469 26.8728 109.66 27.1659C109.85 27.459 109.945 27.8376 109.945 28.3016ZM114.611 22.3521C115.637 22.3521 116.411 22.5793 116.934 23.0335C117.461 23.4878 117.725 24.1961 117.725 25.1583V30.6169H116.502L116.172 29.4666H116.113C115.884 29.7597 115.647 30.0015 115.403 30.192C115.158 30.3825 114.875 30.5241 114.553 30.6169C114.235 30.7146 113.847 30.7635 113.388 30.7635C112.904 30.7635 112.472 30.6755 112.091 30.4997C111.71 30.319 111.409 30.0454 111.19 29.6791C110.97 29.3127 110.86 28.8487 110.86 28.2869C110.86 27.4517 111.17 26.824 111.79 26.4039C112.416 25.9838 113.358 25.7518 114.619 25.7079L116.025 25.6566V25.2316C116.025 24.6699 115.893 24.2693 115.63 24.03C115.371 23.7907 115.004 23.671 114.531 23.671C114.125 23.671 113.732 23.7296 113.351 23.8468C112.97 23.9641 112.599 24.1082 112.237 24.2791L111.68 23.0628C112.076 22.8528 112.526 22.6818 113.029 22.55C113.537 22.4181 114.064 22.3521 114.611 22.3521ZM116.018 26.741L114.97 26.7776C114.111 26.8069 113.507 26.9534 113.161 27.2172C112.814 27.481 112.64 27.8424 112.64 28.3016C112.64 28.7021 112.76 28.9952 112.999 29.1808C113.239 29.3616 113.554 29.4519 113.945 29.4519C114.54 29.4519 115.034 29.2834 115.425 28.9464C115.82 28.6044 116.018 28.1038 116.018 27.4444V26.741ZM128.927 22.3521C129.835 22.3521 130.519 22.5866 130.978 23.0555C131.442 23.5244 131.674 24.2767 131.674 25.3122V30.6169H129.952V25.6199C129.952 25.0045 129.833 24.5404 129.593 24.2278C129.354 23.9152 128.99 23.7589 128.502 23.7589C127.818 23.7589 127.324 23.9787 127.022 24.4183C126.724 24.8531 126.575 25.4856 126.575 26.316V30.6169H124.853V25.6199C124.853 25.2096 124.799 24.8677 124.692 24.5942C124.589 24.3157 124.43 24.1082 124.215 23.9714C124 23.8297 123.729 23.7589 123.402 23.7589C122.928 23.7589 122.55 23.8664 122.266 24.0813C121.988 24.2962 121.788 24.6137 121.666 25.0338C121.544 25.449 121.482 25.9594 121.482 26.5651V30.6169H119.761V22.506H121.101L121.343 23.5977H121.438C121.605 23.3144 121.81 23.0824 122.054 22.9017C122.303 22.716 122.579 22.5793 122.882 22.4913C123.185 22.3985 123.5 22.3521 123.827 22.3521C124.433 22.3521 124.943 22.4596 125.358 22.6745C125.774 22.8846 126.084 23.2069 126.289 23.6417H126.421C126.675 23.2021 127.029 22.8772 127.483 22.6672C127.937 22.4572 128.419 22.3521 128.927 22.3521ZM140.773 22.506V30.6169H139.417L139.183 29.5252H139.088C138.917 29.8036 138.699 30.0356 138.436 30.2213C138.172 30.402 137.879 30.5363 137.556 30.6242C137.234 30.717 136.894 30.7635 136.538 30.7635C135.927 30.7635 135.405 30.6609 134.97 30.4557C134.54 30.2457 134.21 29.9233 133.981 29.4886C133.751 29.0538 133.636 28.4921 133.636 27.8034V22.506H135.366V27.481C135.366 28.1111 135.493 28.5825 135.747 28.8951C136.005 29.2077 136.406 29.364 136.948 29.364C137.471 29.364 137.886 29.2565 138.194 29.0416C138.501 28.8267 138.719 28.5092 138.846 28.0891C138.978 27.669 139.044 27.1537 139.044 26.5431V22.506H140.773ZM146.098 22.3521C146.821 22.3521 147.441 22.5011 147.959 22.7991C148.477 23.097 148.875 23.5196 149.153 24.0666C149.432 24.6137 149.571 25.2683 149.571 26.0303V26.9534H144.156C144.176 27.7399 144.386 28.3456 144.787 28.7705C145.192 29.1955 145.759 29.408 146.486 29.408C147.004 29.408 147.468 29.3591 147.878 29.2614C148.294 29.1589 148.721 29.0099 149.161 28.8145V30.2139C148.755 30.4044 148.343 30.5436 147.922 30.6316C147.502 30.7195 146.999 30.7635 146.413 30.7635C145.617 30.7635 144.916 30.6096 144.31 30.3019C143.709 29.9892 143.238 29.5252 142.896 28.9097C142.559 28.2943 142.391 27.5298 142.391 26.6164C142.391 25.7079 142.544 24.9361 142.852 24.3011C143.16 23.6661 143.592 23.1825 144.149 22.8504C144.706 22.5182 145.356 22.3521 146.098 22.3521ZM146.098 23.649C145.556 23.649 145.116 23.8248 144.779 24.1765C144.447 24.5282 144.252 25.0436 144.193 25.7225H147.886C147.881 25.3171 147.813 24.9581 147.681 24.6455C147.554 24.3328 147.358 24.0886 147.094 23.9128C146.836 23.7369 146.503 23.649 146.098 23.649ZM152.867 30.6169H151.137V19.2162H152.867V30.6169Z" fill="#5a547c"/>
<path d="M78.3737 19.9049L74.3879 30.6169H73.1862L77.1794 19.9049H78.3737Z" fill="#423e5c"/>
<path d="M27.6941 44V38.9259H28.2841V43.4725H30.5366V44H27.6941ZM34.423 42.0911C34.423 42.4035 34.3825 42.6823 34.3016 42.9276C34.2206 43.1728 34.1037 43.3799 33.951 43.5488C33.7983 43.7177 33.6132 43.8473 33.3957 43.9375C33.1805 44.0255 32.9364 44.0694 32.6634 44.0694C32.4089 44.0694 32.1752 44.0255 31.9623 43.9375C31.7518 43.8473 31.569 43.7177 31.414 43.5488C31.2613 43.3799 31.1421 43.1728 31.0565 42.9276C30.9732 42.6823 30.9316 42.4035 30.9316 42.0911C30.9316 41.6747 31.0021 41.3207 31.1433 41.0291C31.2844 40.7353 31.4857 40.512 31.7472 40.3593C32.0109 40.2043 32.3244 40.1268 32.6877 40.1268C33.0348 40.1268 33.3379 40.2043 33.597 40.3593C33.8585 40.5143 34.0609 40.7387 34.2044 41.0326C34.3501 41.3241 34.423 41.677 34.423 42.0911ZM31.5285 42.0911C31.5285 42.3966 31.569 42.6615 31.65 42.8859C31.731 43.1104 31.8559 43.2839 32.0248 43.4065C32.1937 43.5291 32.4112 43.5905 32.6773 43.5905C32.9411 43.5905 33.1574 43.5291 33.3263 43.4065C33.4975 43.2839 33.6236 43.1104 33.7046 42.8859C33.7856 42.6615 33.8261 42.3966 33.8261 42.0911C33.8261 41.788 33.7856 41.5266 33.7046 41.3068C33.6236 41.0847 33.4987 40.9134 33.3298 40.7931C33.1609 40.6728 32.9422 40.6126 32.6738 40.6126C32.2782 40.6126 31.9878 40.7434 31.8027 41.0048C31.6199 41.2663 31.5285 41.6284 31.5285 42.0911ZM36.9698 40.1268C37.0462 40.1268 37.126 40.1314 37.2093 40.1406C37.2926 40.1476 37.3666 40.158 37.4314 40.1719L37.3585 40.7064C37.296 40.6902 37.2266 40.6774 37.1503 40.6682C37.0739 40.6589 37.0022 40.6543 36.9351 40.6543C36.7824 40.6543 36.6378 40.6855 36.5013 40.748C36.3671 40.8082 36.2491 40.8961 36.1473 41.0118C36.0454 41.1251 35.9656 41.2628 35.9078 41.4248C35.8499 41.5844 35.821 41.7626 35.821 41.9593V44H35.2414V40.1962H35.7204L35.7828 40.8972H35.8071C35.8858 40.7561 35.9807 40.6277 36.0917 40.512C36.2028 40.394 36.3312 40.3003 36.477 40.2309C36.625 40.1615 36.7893 40.1268 36.9698 40.1268ZM39.4367 40.1268C39.7607 40.1268 40.0383 40.1985 40.2697 40.3419C40.5011 40.4854 40.6781 40.6867 40.8007 40.9458C40.9233 41.2027 40.9846 41.5034 40.9846 41.8482V42.2057H38.3574C38.3643 42.6522 38.4754 42.9924 38.6905 43.226C38.9057 43.4597 39.2088 43.5766 39.5999 43.5766C39.8405 43.5766 40.0534 43.5546 40.2385 43.5106C40.4236 43.4667 40.6156 43.4019 40.8146 43.3163V43.823C40.6225 43.9086 40.4317 43.9711 40.2419 44.0104C40.0545 44.0497 39.8324 44.0694 39.5756 44.0694C39.21 44.0694 38.8907 43.9954 38.6177 43.8473C38.347 43.6969 38.1364 43.4771 37.986 43.1879C37.8356 42.8986 37.7604 42.5446 37.7604 42.1258C37.7604 41.7163 37.8287 41.3623 37.9652 41.0638C38.104 40.763 38.2984 40.5317 38.5483 40.3697C38.8005 40.2077 39.0966 40.1268 39.4367 40.1268ZM39.4298 40.5988C39.1221 40.5988 38.8768 40.6994 38.694 40.9007C38.5112 41.102 38.4025 41.3831 38.3678 41.7441H40.3808C40.3784 41.5173 40.3426 41.3183 40.2732 41.1471C40.2061 40.9736 40.1031 40.8394 39.9643 40.7445C39.8255 40.6473 39.6473 40.5988 39.4298 40.5988ZM45.9158 40.1268C46.3345 40.1268 46.6504 40.2367 46.8632 40.4565C47.0761 40.674 47.1825 41.0245 47.1825 41.5081V44H46.6134V41.5358C46.6134 41.2281 46.5463 40.9979 46.4121 40.8452C46.2802 40.6902 46.0835 40.6126 45.822 40.6126C45.4542 40.6126 45.1869 40.7191 45.0203 40.9319C44.8537 41.1448 44.7704 41.4583 44.7704 41.8725V44H44.1978V41.5358C44.1978 41.3299 44.1677 41.1587 44.1075 41.0222C44.0497 40.8857 43.9618 40.7839 43.8438 40.7168C43.7281 40.6473 43.5812 40.6126 43.403 40.6126C43.1508 40.6126 42.9483 40.6647 42.7956 40.7688C42.6429 40.8729 42.5319 41.028 42.4625 41.2339C42.3954 41.4375 42.3618 41.6885 42.3618 41.987V44H41.7857V40.1962H42.2507L42.3375 40.7341H42.3687C42.4451 40.6022 42.5411 40.4912 42.6568 40.4009C42.7725 40.3107 42.9021 40.2424 43.0455 40.1962C43.189 40.1499 43.3417 40.1268 43.5036 40.1268C43.7929 40.1268 44.0347 40.1811 44.229 40.2899C44.4257 40.3963 44.568 40.5594 44.6559 40.7792H44.6871C44.8121 40.5594 44.9833 40.3963 45.2008 40.2899C45.4183 40.1811 45.6566 40.1268 45.9158 40.1268ZM50.4332 40.1962V44H49.857V40.1962H50.4332ZM50.152 38.7732C50.2469 38.7732 50.3279 38.8044 50.395 38.8669C50.4644 38.9271 50.4991 39.0219 50.4991 39.1515C50.4991 39.2788 50.4644 39.3736 50.395 39.4361C50.3279 39.4986 50.2469 39.5298 50.152 39.5298C50.0525 39.5298 49.9692 39.4986 49.9021 39.4361C49.8374 39.3736 49.805 39.2788 49.805 39.1515C49.805 39.0219 49.8374 38.9271 49.9021 38.8669C49.9692 38.8044 50.0525 38.7732 50.152 38.7732ZM53.2645 40.1268C53.7388 40.1268 54.1171 40.2899 54.3994 40.6161C54.6817 40.9424 54.8228 41.4329 54.8228 42.0877C54.8228 42.5203 54.7581 42.8836 54.6285 43.1775C54.4989 43.4713 54.3161 43.6934 54.0801 43.8438C53.8464 43.9942 53.5699 44.0694 53.2506 44.0694C53.0493 44.0694 52.8723 44.0428 52.7196 43.9896C52.5669 43.9364 52.4362 43.8646 52.3274 43.7744C52.2187 43.6842 52.1285 43.5858 52.0567 43.4794H52.0151C52.022 43.5696 52.0301 43.6784 52.0394 43.8056C52.0509 43.9329 52.0567 44.044 52.0567 44.1388V45.7006H51.4771V40.1962H51.9526L52.029 40.7584H52.0567C52.1308 40.6427 52.221 40.5374 52.3274 40.4426C52.4339 40.3454 52.5634 40.269 52.7162 40.2135C52.8712 40.1557 53.054 40.1268 53.2645 40.1268ZM53.1639 40.6126C52.9001 40.6126 52.6872 40.6635 52.5253 40.7654C52.3656 40.8672 52.2488 41.0199 52.1747 41.2235C52.1007 41.4248 52.0614 41.6781 52.0567 41.9836V42.0946C52.0567 42.4162 52.0914 42.6881 52.1608 42.9102C52.2326 43.1323 52.3494 43.3012 52.5114 43.4169C52.6757 43.5326 52.8955 43.5905 53.1708 43.5905C53.4068 43.5905 53.6035 43.5268 53.7608 43.3996C53.9182 43.2723 54.035 43.0953 54.1114 42.8686C54.19 42.6395 54.2294 42.3769 54.2294 42.0807C54.2294 41.6319 54.1414 41.2755 53.9656 41.0118C53.7921 40.7457 53.5248 40.6126 53.1639 40.6126ZM58.1123 42.9588C58.1123 43.2017 58.051 43.4065 57.9284 43.5731C57.8081 43.7374 57.6345 43.8612 57.4078 43.9445C57.1833 44.0278 56.9149 44.0694 56.6026 44.0694C56.3365 44.0694 56.1063 44.0486 55.9119 44.0069C55.7176 43.9653 55.5475 43.9063 55.4017 43.8299V43.2989C55.5568 43.3753 55.7419 43.4447 55.957 43.5072C56.1722 43.5696 56.392 43.6009 56.6165 43.6009C56.945 43.6009 57.1833 43.5477 57.3314 43.4412C57.4795 43.3348 57.5535 43.1902 57.5535 43.0074C57.5535 42.9033 57.5235 42.8119 57.4633 42.7332C57.4055 42.6522 57.3071 42.5747 57.1683 42.5007C57.0295 42.4243 56.8374 42.341 56.5922 42.2508C56.3492 42.1582 56.1387 42.0668 55.9605 41.9766C55.7847 41.8841 55.6482 41.7718 55.551 41.64C55.4561 41.5081 55.4087 41.3369 55.4087 41.1263C55.4087 40.8047 55.5383 40.5583 55.7974 40.3871C56.0589 40.2135 56.4013 40.1268 56.8247 40.1268C57.0538 40.1268 57.2678 40.1499 57.4668 40.1962C57.6681 40.2401 57.8555 40.3003 58.029 40.3766L57.8347 40.8382C57.6773 40.7711 57.5096 40.7144 57.3314 40.6682C57.1533 40.6219 56.9716 40.5988 56.7865 40.5988C56.5205 40.5988 56.3157 40.6427 56.1722 40.7306C56.0311 40.8186 55.9605 40.9389 55.9605 41.0916C55.9605 41.2096 55.9929 41.3068 56.0577 41.3831C56.1248 41.4595 56.2312 41.5312 56.377 41.5983C56.5228 41.6654 56.7148 41.7441 56.9531 41.8343C57.1914 41.9222 57.3974 42.0136 57.5709 42.1085C57.7444 42.201 57.8775 42.3144 57.97 42.4486C58.0649 42.5805 58.1123 42.7506 58.1123 42.9588ZM62.0022 40.1962V44H61.5302L61.4469 43.4655H61.4157C61.337 43.5974 61.2352 43.7085 61.1103 43.7987C60.9853 43.8889 60.8442 43.956 60.6869 44C60.5318 44.0463 60.3664 44.0694 60.1905 44.0694C59.8898 44.0694 59.6376 44.0208 59.4339 43.9236C59.2303 43.8265 59.0765 43.6761 58.9724 43.4725C58.8705 43.2688 58.8196 43.0074 58.8196 42.6881V40.1962H59.4027V42.6464C59.4027 42.9634 59.4744 43.2006 59.6179 43.3579C59.7613 43.513 59.98 43.5905 60.2738 43.5905C60.5561 43.5905 60.7806 43.5372 60.9472 43.4308C61.1161 43.3244 61.2375 43.1682 61.3116 42.9623C61.3856 42.754 61.4226 42.4995 61.4226 42.1987V40.1962H62.0022ZM67.1728 40.1268C67.5916 40.1268 67.9074 40.2367 68.1203 40.4565C68.3332 40.674 68.4396 41.0245 68.4396 41.5081V44H67.8704V41.5358C67.8704 41.2281 67.8033 40.9979 67.6691 40.8452C67.5372 40.6902 67.3406 40.6126 67.0791 40.6126C66.7112 40.6126 66.444 40.7191 66.2774 40.9319C66.1108 41.1448 66.0275 41.4583 66.0275 41.8725V44H65.4548V41.5358C65.4548 41.3299 65.4248 41.1587 65.3646 41.0222C65.3068 40.8857 65.2188 40.7839 65.1008 40.7168C64.9851 40.6473 64.8382 40.6126 64.6601 40.6126C64.4079 40.6126 64.2054 40.6647 64.0527 40.7688C63.9 40.8729 63.7889 41.028 63.7195 41.2339C63.6524 41.4375 63.6189 41.6885 63.6189 41.987V44H63.0427V40.1962H63.5078L63.5946 40.7341H63.6258C63.7022 40.6022 63.7982 40.4912 63.9139 40.4009C64.0296 40.3107 64.1591 40.2424 64.3026 40.1962C64.446 40.1499 64.5987 40.1268 64.7607 40.1268C65.0499 40.1268 65.2917 40.1811 65.4861 40.2899C65.6827 40.3963 65.825 40.5594 65.913 40.7792H65.9442C66.0691 40.5594 66.2404 40.3963 66.4579 40.2899C66.6753 40.1811 66.9137 40.1268 67.1728 40.1268ZM72.4676 44.0694C71.9864 44.0694 71.6046 43.9051 71.3223 43.5766C71.0424 43.248 70.9024 42.7598 70.9024 42.112C70.9024 41.4572 71.0458 40.9632 71.3327 40.63C71.6196 40.2945 72.0014 40.1268 72.4781 40.1268C72.6794 40.1268 72.8552 40.1534 73.0056 40.2066C73.156 40.2598 73.2856 40.3315 73.3943 40.4218C73.5031 40.5097 73.5944 40.6103 73.6685 40.7237H73.7101C73.7009 40.652 73.6916 40.5536 73.6824 40.4287C73.6731 40.3038 73.6685 40.2019 73.6685 40.1233V38.5997H74.2446V44H73.7795L73.6928 43.4586H73.6685C73.5968 43.572 73.5054 43.6749 73.3943 43.7675C73.2856 43.86 73.1548 43.9341 73.0021 43.9896C72.8517 44.0428 72.6736 44.0694 72.4676 44.0694ZM72.5579 43.5905C72.9651 43.5905 73.2532 43.4748 73.4221 43.2434C73.591 43.012 73.6754 42.6684 73.6754 42.2126V42.1085C73.6754 41.6249 73.5944 41.2536 73.4325 40.9944C73.2728 40.7353 72.9813 40.6057 72.5579 40.6057C72.2039 40.6057 71.9389 40.7422 71.7631 41.0152C71.5873 41.2859 71.4993 41.6562 71.4993 42.1258C71.4993 42.5932 71.5861 42.9542 71.7596 43.2087C71.9355 43.4632 72.2016 43.5905 72.5579 43.5905ZM78.5684 42.0911C78.5684 42.4035 78.5279 42.6823 78.4469 42.9276C78.3659 43.1728 78.2491 43.3799 78.0963 43.5488C77.9436 43.7177 77.7585 43.8473 77.541 43.9375C77.3259 44.0255 77.0818 44.0694 76.8087 44.0694C76.5542 44.0694 76.3205 44.0255 76.1077 43.9375C75.8971 43.8473 75.7143 43.7177 75.5593 43.5488C75.4066 43.3799 75.2874 43.1728 75.2018 42.9276C75.1185 42.6823 75.0769 42.4035 75.0769 42.0911C75.0769 41.6747 75.1474 41.3207 75.2886 41.0291C75.4297 40.7353 75.631 40.512 75.8925 40.3593C76.1562 40.2043 76.4698 40.1268 76.833 40.1268C77.1801 40.1268 77.4832 40.2043 77.7423 40.3593C78.0038 40.5143 78.2062 40.7387 78.3497 41.0326C78.4955 41.3241 78.5684 41.677 78.5684 42.0911ZM75.6738 42.0911C75.6738 42.3966 75.7143 42.6615 75.7953 42.8859C75.8763 43.1104 76.0012 43.2839 76.1701 43.4065C76.339 43.5291 76.5565 43.5905 76.8226 43.5905C77.0864 43.5905 77.3027 43.5291 77.4716 43.4065C77.6428 43.2839 77.7689 43.1104 77.8499 42.8859C77.9309 42.6615 77.9714 42.3966 77.9714 42.0911C77.9714 41.788 77.9309 41.5266 77.8499 41.3068C77.7689 41.0847 77.644 40.9134 77.4751 40.7931C77.3062 40.6728 77.0875 40.6126 76.8191 40.6126C76.4235 40.6126 76.1331 40.7434 75.948 41.0048C75.7652 41.2663 75.6738 41.6284 75.6738 42.0911ZM79.9663 44H79.3867V38.5997H79.9663V44ZM84.2866 42.0911C84.2866 42.4035 84.2461 42.6823 84.1651 42.9276C84.0841 43.1728 83.9673 43.3799 83.8146 43.5488C83.6619 43.7177 83.4768 43.8473 83.2593 43.9375C83.0441 44.0255 82.8 44.0694 82.527 44.0694C82.2725 44.0694 82.0388 44.0255 81.8259 43.9375C81.6154 43.8473 81.4326 43.7177 81.2775 43.5488C81.1248 43.3799 81.0057 43.1728 80.9201 42.9276C80.8368 42.6823 80.7951 42.4035 80.7951 42.0911C80.7951 41.6747 80.8657 41.3207 81.0068 41.0291C81.148 40.7353 81.3493 40.512 81.6107 40.3593C81.8745 40.2043 82.188 40.1268 82.5513 40.1268C82.8983 40.1268 83.2014 40.2043 83.4606 40.3593C83.722 40.5143 83.9245 40.7387 84.068 41.0326C84.2137 41.3241 84.2866 41.677 84.2866 42.0911ZM81.3921 42.0911C81.3921 42.3966 81.4326 42.6615 81.5136 42.8859C81.5945 43.1104 81.7195 43.2839 81.8884 43.4065C82.0573 43.5291 82.2748 43.5905 82.5409 43.5905C82.8046 43.5905 83.021 43.5291 83.1899 43.4065C83.3611 43.2839 83.4872 43.1104 83.5682 42.8859C83.6492 42.6615 83.6897 42.3966 83.6897 42.0911C83.6897 41.788 83.6492 41.5266 83.5682 41.3068C83.4872 41.0847 83.3623 40.9134 83.1933 40.7931C83.0244 40.6728 82.8058 40.6126 82.5374 40.6126C82.1417 40.6126 81.8514 40.7434 81.6663 41.0048C81.4835 41.2663 81.3921 41.6284 81.3921 42.0911ZM86.8334 40.1268C86.9097 40.1268 86.9895 40.1314 87.0728 40.1406C87.1561 40.1476 87.2302 40.158 87.295 40.1719L87.2221 40.7064C87.1596 40.6902 87.0902 40.6774 87.0138 40.6682C86.9375 40.6589 86.8658 40.6543 86.7987 40.6543C86.646 40.6543 86.5013 40.6855 86.3648 40.748C86.2306 40.8082 86.1126 40.8961 86.0108 41.0118C85.909 41.1251 85.8292 41.2628 85.7713 41.4248C85.7135 41.5844 85.6846 41.7626 85.6846 41.9593V44H85.105V40.1962H85.5839L85.6464 40.8972H85.6707C85.7494 40.7561 85.8442 40.6277 85.9553 40.512C86.0664 40.394 86.1948 40.3003 86.3405 40.2309C86.4886 40.1615 86.6529 40.1268 86.8334 40.1268ZM91.9651 42.9588C91.9651 43.2017 91.9038 43.4065 91.7811 43.5731C91.6608 43.7374 91.4873 43.8612 91.2605 43.9445C91.0361 44.0278 90.7677 44.0694 90.4553 44.0694C90.1893 44.0694 89.959 44.0486 89.7647 44.0069C89.5703 43.9653 89.4003 43.9063 89.2545 43.8299V43.2989C89.4095 43.3753 89.5946 43.4447 89.8098 43.5072C90.025 43.5696 90.2448 43.6009 90.4692 43.6009C90.7978 43.6009 91.0361 43.5477 91.1842 43.4412C91.3323 43.3348 91.4063 43.1902 91.4063 43.0074C91.4063 42.9033 91.3762 42.8119 91.3161 42.7332C91.2582 42.6522 91.1599 42.5747 91.0211 42.5007C90.8822 42.4243 90.6902 42.341 90.4449 42.2508C90.202 42.1582 89.9914 42.0668 89.8133 41.9766C89.6374 41.8841 89.5009 41.7718 89.4037 41.64C89.3089 41.5081 89.2614 41.3369 89.2614 41.1263C89.2614 40.8047 89.391 40.5583 89.6502 40.3871C89.9116 40.2135 90.254 40.1268 90.6775 40.1268C90.9065 40.1268 91.1206 40.1499 91.3195 40.1962C91.5208 40.2401 91.7082 40.3003 91.8818 40.3766L91.6874 40.8382C91.5301 40.7711 91.3623 40.7144 91.1842 40.6682C91.006 40.6219 90.8244 40.5988 90.6393 40.5988C90.3732 40.5988 90.1684 40.6427 90.025 40.7306C89.8838 40.8186 89.8133 40.9389 89.8133 41.0916C89.8133 41.2096 89.8457 41.3068 89.9104 41.3831C89.9775 41.4595 90.084 41.5312 90.2297 41.5983C90.3755 41.6654 90.5676 41.7441 90.8059 41.8343C91.0442 41.9222 91.2501 42.0136 91.4237 42.1085C91.5972 42.201 91.7302 42.3144 91.8228 42.4486C91.9176 42.5805 91.9651 42.7506 91.9651 42.9588ZM93.2902 40.1962V44H92.714V40.1962H93.2902ZM93.009 38.7732C93.1039 38.7732 93.1849 38.8044 93.252 38.8669C93.3214 38.9271 93.3561 39.0219 93.3561 39.1515C93.3561 39.2788 93.3214 39.3736 93.252 39.4361C93.1849 39.4986 93.1039 39.5298 93.009 39.5298C92.9096 39.5298 92.8263 39.4986 92.7592 39.4361C92.6944 39.3736 92.662 39.2788 92.662 39.1515C92.662 39.0219 92.6944 38.9271 92.7592 38.8669C92.8263 38.8044 92.9096 38.7732 93.009 38.7732ZM95.5628 43.5974C95.6576 43.5974 95.7548 43.5893 95.8543 43.5731C95.9538 43.5569 96.0348 43.5372 96.0972 43.5141V43.9618C96.0301 43.9919 95.9364 44.0174 95.8161 44.0382C95.6981 44.059 95.5824 44.0694 95.469 44.0694C95.2677 44.0694 95.085 44.0347 94.9207 43.9653C94.7564 43.8936 94.6245 43.7733 94.525 43.6043C94.4278 43.4354 94.3793 43.2017 94.3793 42.9033V40.6473H93.8378V40.3662L94.3827 40.1406L94.6118 39.3146H94.9589V40.1962H96.0729V40.6473H94.9589V42.8859C94.9589 43.1242 95.0132 43.3024 95.122 43.4204C95.233 43.5384 95.38 43.5974 95.5628 43.5974ZM99.7817 40.1337C100.235 40.1337 100.572 40.2355 100.792 40.4391C101.011 40.6427 101.121 40.9678 101.121 41.4144V44H100.701L100.59 43.4378H100.563C100.456 43.5766 100.345 43.6934 100.229 43.7883C100.114 43.8808 99.9795 43.9514 99.8268 44C99.6764 44.0463 99.4913 44.0694 99.2715 44.0694C99.0401 44.0694 98.8342 44.0289 98.6537 43.9479C98.4756 43.867 98.3344 43.7443 98.2303 43.5801C98.1285 43.4158 98.0776 43.2075 98.0776 42.9553C98.0776 42.5759 98.228 42.2843 98.5288 42.0807C98.8296 41.8771 99.2877 41.7661 99.9032 41.7475L100.559 41.7198V41.4872C100.559 41.1587 100.489 40.9285 100.347 40.7966C100.206 40.6647 100.007 40.5988 99.7504 40.5988C99.5515 40.5988 99.3617 40.6277 99.1813 40.6855C99.0008 40.7434 98.8296 40.8116 98.6676 40.8903L98.4906 40.453C98.6618 40.3651 98.8585 40.2899 99.0806 40.2274C99.3027 40.1649 99.5364 40.1337 99.7817 40.1337ZM100.552 42.1258L99.9726 42.1501C99.4982 42.1687 99.1639 42.2462 98.9695 42.3827C98.7752 42.5192 98.678 42.7124 98.678 42.9623C98.678 43.1798 98.744 43.3406 98.8758 43.4447C99.0077 43.5488 99.1824 43.6009 99.3999 43.6009C99.7377 43.6009 100.014 43.5072 100.229 43.3198C100.445 43.1323 100.552 42.8512 100.552 42.4764V42.1258ZM106.261 40.1268C106.679 40.1268 106.995 40.2367 107.208 40.4565C107.421 40.674 107.527 41.0245 107.527 41.5081V44H106.958V41.5358C106.958 41.2281 106.891 40.9979 106.757 40.8452C106.625 40.6902 106.428 40.6126 106.167 40.6126C105.799 40.6126 105.532 40.7191 105.365 40.9319C105.199 41.1448 105.115 41.4583 105.115 41.8725V44H104.543V41.5358C104.543 41.3299 104.513 41.1587 104.452 41.0222C104.395 40.8857 104.307 40.7839 104.189 40.7168C104.073 40.6473 103.926 40.6126 103.748 40.6126C103.496 40.6126 103.293 40.6647 103.141 40.7688C102.988 40.8729 102.877 41.028 102.807 41.2339C102.74 41.4375 102.707 41.6885 102.707 41.987V44H102.131V40.1962H102.596L102.682 40.7341H102.714C102.79 40.6022 102.886 40.4912 103.002 40.4009C103.117 40.3107 103.247 40.2424 103.39 40.1962C103.534 40.1499 103.687 40.1268 103.849 40.1268C104.138 40.1268 104.38 40.1811 104.574 40.2899C104.771 40.3963 104.913 40.5594 105.001 40.7792H105.032C105.157 40.5594 105.328 40.3963 105.546 40.2899C105.763 40.1811 106.002 40.1268 106.261 40.1268ZM109.998 40.1268C110.322 40.1268 110.599 40.1985 110.831 40.3419C111.062 40.4854 111.239 40.6867 111.362 40.9458C111.484 41.2027 111.546 41.5034 111.546 41.8482V42.2057H108.919C108.925 42.6522 109.037 42.9924 109.252 43.226C109.467 43.4597 109.77 43.5766 110.161 43.5766C110.402 43.5766 110.615 43.5546 110.8 43.5106C110.985 43.4667 111.177 43.4019 111.376 43.3163V43.823C111.184 43.9086 110.993 43.9711 110.803 44.0104C110.616 44.0497 110.394 44.0694 110.137 44.0694C109.771 44.0694 109.452 43.9954 109.179 43.8473C108.908 43.6969 108.698 43.4771 108.547 43.1879C108.397 42.8986 108.322 42.5446 108.322 42.1258C108.322 41.7163 108.39 41.3623 108.526 41.0638C108.665 40.763 108.86 40.5317 109.109 40.3697C109.362 40.2077 109.658 40.1268 109.998 40.1268ZM109.991 40.5988C109.683 40.5988 109.438 40.6994 109.255 40.9007C109.072 41.102 108.964 41.3831 108.929 41.7441H110.942C110.94 41.5173 110.904 41.3183 110.834 41.1471C110.767 40.9736 110.664 40.8394 110.525 40.7445C110.387 40.6473 110.208 40.5988 109.991 40.5988ZM113.575 43.5974C113.67 43.5974 113.767 43.5893 113.867 43.5731C113.966 43.5569 114.047 43.5372 114.11 43.5141V43.9618C114.043 43.9919 113.949 44.0174 113.829 44.0382C113.711 44.059 113.595 44.0694 113.482 44.0694C113.28 44.0694 113.098 44.0347 112.933 43.9653C112.769 43.8936 112.637 43.7733 112.538 43.6043C112.441 43.4354 112.392 43.2017 112.392 42.9033V40.6473H111.851V40.3662L112.395 40.1406L112.624 39.3146H112.972V40.1962H114.086V40.6473H112.972V42.8859C112.972 43.1242 113.026 43.3024 113.135 43.4204C113.246 43.5384 113.393 43.5974 113.575 43.5974Z" fill="#423e5c"/>
</g>
<rect x="0.5" y="0.5" width="406" height="218" rx="14.5" stroke="#5a547c"/>
<defs>
<clipPath id="clip0_51_221">
<rect width="407" height="219" rx="15" fill="#ffffff"/>
</clipPath>
</defs>
</svg>
