<?xml version="1.0" encoding="UTF-8"?>
<!DOCTYPE svg PUBLIC "-//W3C//DTD SVG 1.1//EN" "http://www.w3.org/Graphics/SVG/1.1/DTD/svg11.dtd">
<svg xmlns="http://www.w3.org/2000/svg" version="1.1" width="1000px" height="1000px" style="shape-rendering:geometricPrecision; text-rendering:geometricPrecision; image-rendering:optimizeQuality; fill-rule:evenodd; clip-rule:evenodd" xmlns:xlink="http://www.w3.org/1999/xlink">
<g><path style="opacity:0.993" fill="#6aa341" d="M 496.5,99.5 C 500.302,100.779 503.469,103.112 506,106.5C 571.261,181.228 621.928,265.228 658,358.5C 681.976,421.689 692.309,487.023 689,554.5C 680.013,668.89 622.847,748.223 517.5,792.5C 516.5,828.16 516.167,863.827 516.5,899.5C 505.833,899.5 495.167,899.5 484.5,899.5C 484.833,863.827 484.5,828.16 483.5,792.5C 382.619,752.754 325.286,678.92 311.5,571C 305.565,508.518 312.065,447.351 331,387.5C 352.468,320.57 382.468,257.904 421,199.5C 444.078,164.589 469.244,131.256 496.5,99.5 Z M 500.5,251.5 C 501.321,254.641 501.821,257.975 502,261.5C 507.26,420.315 511.76,579.148 515.5,738C 515.333,755.833 515.167,773.667 515,791.5C 510.333,793.5 505.667,795.5 501,797.5C 496,795.5 491,793.5 486,791.5C 485.833,775.833 485.667,760.167 485.5,744.5C 490.123,580.156 495.123,415.823 500.5,251.5 Z"/></g>
</svg>
