<?xml version="1.0" encoding="UTF-8"?>
<!DOCTYPE svg PUBLIC "-//W3C//DTD SVG 1.1//EN" "http://www.w3.org/Graphics/SVG/1.1/DTD/svg11.dtd">
<svg xmlns="http://www.w3.org/2000/svg" version="1.1" width="512px" height="512px" style="shape-rendering:geometricPrecision; text-rendering:geometricPrecision; image-rendering:optimizeQuality; fill-rule:evenodd; clip-rule:evenodd" xmlns:xlink="http://www.w3.org/1999/xlink">
<g><path style="opacity:0.962" fill="#529e42" d="M 243.5,-0.5 C 251.5,-0.5 259.5,-0.5 267.5,-0.5C 323.926,31.4085 380.26,63.5752 436.5,96C 448.274,102.635 459.607,109.801 470.5,117.5C 470.427,119.027 471.094,120.027 472.5,120.5C 474.074,120.937 475.241,121.937 476,123.5C 478.034,127.52 480.034,131.52 482,135.5C 482.667,215.5 482.667,295.5 482,375.5C 479.633,382.411 476.133,388.577 471.5,394C 411.327,429.587 350.994,464.921 290.5,500C 282.948,504.333 275.282,508.166 267.5,511.5C 259.833,511.5 252.167,511.5 244.5,511.5C 240.71,509.442 236.71,507.609 232.5,506C 212.202,493.179 191.535,480.845 170.5,469C 168.773,467.611 167.439,465.944 166.5,464C 166.759,462.739 167.426,461.739 168.5,461C 180.126,457.889 190.959,453.056 201,446.5C 219.21,456.356 237.21,466.69 255,477.5C 318.925,441.233 382.592,404.566 446,367.5C 447.154,330.045 447.654,292.545 447.5,255C 447.658,217.775 447.158,180.608 446,143.5C 382.571,106.401 318.905,69.7347 255,33.5C 191.72,69.5541 128.553,105.721 65.5,142C 64.5399,143.419 63.7065,144.919 63,146.5C 62.3333,218.833 62.3333,291.167 63,363.5C 63.3603,365.421 64.1936,367.088 65.5,368.5C 82.4947,378.331 99.4947,388.164 116.5,398C 122.751,400.688 129.251,402.521 136,403.5C 146.736,402.409 154.403,397.076 159,387.5C 159.333,313.167 159.667,238.833 160,164.5C 160.513,162.479 161.68,160.979 163.5,160C 173.5,159.333 183.5,159.333 193.5,160C 194.416,160.374 195.25,160.874 196,161.5C 196.977,241.19 196.643,320.857 195,400.5C 188.709,423.788 173.543,436.622 149.5,439C 132.559,440.745 116.559,437.745 101.5,430C 83.1667,419.667 64.8333,409.333 46.5,399C 37.6716,393.491 31.8383,385.657 29,375.5C 28.3333,295.833 28.3333,216.167 29,136.5C 30.9072,130.342 34.0739,125.009 38.5,120.5C 39.9063,120.027 40.573,119.027 40.5,117.5C 42.6467,115.53 44.98,113.697 47.5,112C 65.3724,101.901 83.039,91.5681 100.5,81C 148.007,53.3516 195.673,26.1849 243.5,-0.5 Z"/></g>
<g><path style="opacity:0.131" fill="#509e40" d="M 40.5,117.5 C 40.573,119.027 39.9063,120.027 38.5,120.5C 38.427,118.973 39.0937,117.973 40.5,117.5 Z"/></g>
<g><path style="opacity:0.131" fill="#509e40" d="M 470.5,117.5 C 471.906,117.973 472.573,118.973 472.5,120.5C 471.094,120.027 470.427,119.027 470.5,117.5 Z"/></g>
<g><path style="opacity:0.958" fill="#529d42" d="M 385.5,178.5 C 385.427,180.027 386.094,181.027 387.5,181.5C 396.614,193.492 400.78,207.159 400,222.5C 399.5,224.333 398.333,225.5 396.5,226C 386.833,226.667 377.167,226.667 367.5,226C 366.667,225.167 365.833,224.333 365,223.5C 359.826,200.469 345.326,188.635 321.5,188C 304.457,186.161 287.79,187.827 271.5,193C 259.87,200.056 256.537,209.89 261.5,222.5C 268.041,227.299 275.375,230.465 283.5,232C 308.925,235.452 334.258,239.452 359.5,244C 373.594,247.131 386.094,253.298 397,262.5C 401.474,268.582 404.807,275.249 407,282.5C 412.768,316.138 400.268,339.972 369.5,354C 330.088,366.839 290.755,366.505 251.5,353C 233.33,344.494 221.164,330.661 215,311.5C 214.061,304.512 213.728,297.512 214,290.5C 214.465,289.069 215.299,287.903 216.5,287C 226.833,286.333 237.167,286.333 247.5,287C 249.995,289.916 251.162,293.416 251,297.5C 253.841,309.672 261.008,318.172 272.5,323C 299.177,330.283 325.844,330.283 352.5,323C 355.649,321.338 358.649,319.505 361.5,317.5C 363.5,317.5 364.5,316.5 364.5,314.5C 370.248,306.053 370.748,297.387 366,288.5C 360.507,284.169 354.34,281.003 347.5,279C 340.476,277.795 333.476,276.462 326.5,275C 302.058,273.371 278.058,269.371 254.5,263C 242.044,258.368 232.211,250.535 225,239.5C 211.815,197.996 225.982,170.496 267.5,157C 300.001,149.771 332.001,151.438 363.5,162C 372.173,165.857 379.507,171.357 385.5,178.5 Z"/></g>
<g><path style="opacity:0.072" fill="#509e40" d="M 385.5,178.5 C 386.906,178.973 387.573,179.973 387.5,181.5C 386.094,181.027 385.427,180.027 385.5,178.5 Z"/></g>
<g><path style="opacity:0.136" fill="#509e40" d="M 364.5,314.5 C 364.5,316.5 363.5,317.5 361.5,317.5C 362.167,316.167 363.167,315.167 364.5,314.5 Z"/></g>
</svg>
