<svg width="43" height="43" viewBox="0 0 43 43" fill="none" xmlns="http://www.w3.org/2000/svg">
<g clip-path="url(#clip0_19_77)">
<path d="M34.7701 15.1898C34.3461 15.0394 33.9067 14.8967 33.4542 14.7615C33.5316 14.4578 33.6029 14.158 33.6665 13.8632C34.7111 9.02313 34.0946 5.11022 31.8761 3.803C29.7489 2.54955 26.239 3.8027 22.6775 6.84388C22.335 7.13632 21.9915 7.44612 21.6479 7.77095C21.423 7.55179 21.1985 7.33993 20.9744 7.1372C17.303 3.81515 13.605 2.39501 11.3646 3.66409C9.2162 4.88098 8.54895 8.54779 9.40509 13.1521C9.48776 13.5969 9.58502 14.0511 9.69548 14.5131C9.16887 14.6573 8.66034 14.8115 8.17361 14.976C3.81885 16.4486 1.02451 18.7943 1.00141 21.2544C0.977562 23.7952 3.92946 26.3716 8.43598 27.9593C8.79162 28.0846 9.16074 28.2034 9.54123 28.3164C9.41271 28.8138 9.30042 29.3013 9.20553 29.7769C8.30566 34.285 8.94163 37.8772 11.0611 39.1264C13.2504 40.4164 16.9569 39.1463 20.5836 36.0357C20.8702 35.7898 21.1581 35.5289 21.4465 35.2553C21.8136 35.6155 22.1804 35.9567 22.5454 36.2768C26.0015 39.3079 29.4315 40.551 31.5722 39.3384C33.7831 38.086 34.5339 34.2406 33.6501 29.545C33.5826 29.1864 33.5036 28.82 33.4145 28.4469C33.6746 28.3726 33.93 28.2959 34.1792 28.2159C38.8938 26.7027 41.9754 24.214 41.9996 21.6392C42.0228 19.1702 39.1837 16.7557 34.7701 15.1898ZM33.6439 26.5482C33.4191 26.6203 33.1884 26.6899 32.9533 26.7573C32.4499 25.1098 31.766 23.3565 30.926 21.5438C31.7603 19.7899 32.4497 18.0718 32.9693 16.4446C33.3876 16.5699 33.7934 16.7017 34.1844 16.8405C37.9661 18.1821 40.2621 20.1349 40.2482 21.6228C40.2333 23.2077 37.7147 25.2417 33.6439 26.5482ZM31.9288 29.869C32.3196 31.9453 32.3606 33.8196 32.0751 35.2819C31.8185 36.5958 31.3192 37.4687 30.7088 37.8144C29.4097 38.5502 26.6558 37.5521 23.7001 34.9599C23.3612 34.6628 23.0201 34.3457 22.678 34.0102C23.8451 32.7576 25.0134 31.2997 26.1556 29.679C28.1392 29.5218 30.0144 29.2518 31.7162 28.8752C31.7966 29.2134 31.8678 29.5449 31.9288 29.869ZM14.827 37.5361C13.5605 37.9701 12.555 37.9734 11.9505 37.6173C10.6643 36.8592 10.1537 33.975 10.9233 30.1197C11.0115 29.6781 11.1157 29.2247 11.2353 28.7614C12.9113 29.1485 14.7675 29.4332 16.7527 29.6129C17.8722 31.2198 19.0463 32.6981 20.2313 33.994C19.9674 34.2441 19.7047 34.482 19.4435 34.7061C17.8397 36.0816 16.2365 37.0531 14.827 37.5361ZM9.01798 26.3073C7.02528 25.6053 5.38268 24.7018 4.26013 23.7221C3.25146 22.8417 2.74618 21.9723 2.75277 21.2708C2.76678 19.7779 5.01036 17.8947 8.73459 16.6353C9.18648 16.4825 9.65937 16.3389 10.15 16.2045C10.6473 17.8781 11.3039 19.6292 12.0995 21.4012C11.2601 23.184 10.5609 24.9502 10.027 26.6337C9.67908 26.5302 9.34212 26.4215 9.01798 26.3073ZM11.1271 12.8319C10.3935 8.88703 10.9331 5.92141 12.2278 5.18812C13.6068 4.40694 16.6292 5.56756 19.7992 8.43598C20.0018 8.61932 20.2052 8.81113 20.409 9.00951C19.2058 10.2774 18.0151 11.7225 16.8759 13.2987C14.946 13.4594 13.0976 13.7291 11.397 14.0976C11.2944 13.6675 11.2038 13.2449 11.1271 12.8319ZM28.7708 17.3648C28.3717 16.6602 27.9617 15.9722 27.5434 15.3027C28.8499 15.4804 30.1011 15.7116 31.2756 15.9913C30.9116 17.1204 30.4601 18.3003 29.9302 19.5093C29.565 18.7998 29.1783 18.0842 28.7708 17.3648ZM21.625 10.2727C22.4246 11.1555 23.2244 12.1403 24.0102 13.2079C23.2087 13.1625 22.3971 13.1352 21.5786 13.1275C20.7678 13.1199 19.9619 13.1316 19.1646 13.1613C19.971 12.1185 20.7962 11.1503 21.625 10.2727ZM14.3009 17.241C13.8891 17.9399 13.4964 18.6443 13.1237 19.3502C12.625 18.1358 12.1998 16.9423 11.8542 15.7905C13.0264 15.5397 14.2758 15.3373 15.5771 15.1873C15.1402 15.8549 14.7139 16.5401 14.3009 17.2409L14.3009 17.241ZM15.4969 27.7193C14.1554 27.5569 12.8912 27.342 11.7241 27.0764C12.0972 25.9108 12.5546 24.7002 13.087 23.4694C13.4473 24.1817 13.8283 24.8936 14.2294 25.6017L14.2294 25.6017C14.638 26.323 15.0617 27.0298 15.4969 27.7193ZM21.4625 32.7452C20.6408 31.8418 19.8221 30.8433 19.0234 29.77C19.8082 29.8082 20.6083 29.8314 21.4217 29.8391C22.2574 29.8469 23.0836 29.8358 23.8971 29.8073C23.0885 30.8847 22.2731 31.8693 21.4625 32.7452ZM29.9089 23.5644C30.4451 24.8185 30.8957 26.0313 31.2517 27.1839C30.0605 27.4439 28.775 27.6502 27.4212 27.7998C27.8531 27.1294 28.2798 26.4374 28.6993 25.7255C29.1238 25.0052 29.5272 24.2836 29.9089 23.5644ZM27.1905 24.8363C26.5391 25.9415 25.8712 26.9961 25.1939 27.9911C23.9765 28.0667 22.7192 28.0997 21.4382 28.0876C20.1623 28.0757 18.9217 28.0244 17.7273 27.9356C17.042 26.9146 16.3797 25.8444 15.7532 24.7385L15.7534 24.7385C15.1286 23.6355 14.5544 22.5238 14.0351 21.4188C14.575 20.3211 15.1684 19.2191 15.8101 18.13L15.81 18.1303C16.4534 17.0383 17.1297 15.9858 17.8276 14.9842C19.0478 14.9034 20.2985 14.8671 21.5621 14.8789L21.5622 14.8789C22.8314 14.8909 24.0829 14.9511 25.3009 15.0555C25.9695 16.0626 26.6214 17.1241 27.2467 18.2281C27.8792 19.3446 28.4593 20.4502 28.9833 21.5342C28.4405 22.6267 27.8409 23.7324 27.1905 24.8363ZM30.987 5.31211C32.3525 6.11672 32.8564 9.31473 31.9545 13.4936C31.897 13.7603 31.8325 14.0318 31.7626 14.307C30.0654 13.8986 28.2211 13.5892 26.289 13.3896C25.1775 11.7748 24.0238 10.3054 22.8639 9.03176C23.1818 8.73164 23.4991 8.44561 23.8149 8.17584C26.8664 5.57018 29.7051 4.55675 30.987 5.31211ZM21.5349 17.7858C23.5568 17.8048 25.1805 19.4592 25.1615 21.4812C25.1425 23.5031 23.488 25.1268 21.4661 25.1078C19.4443 25.0888 17.8205 23.4343 17.8395 21.4124C17.8585 19.3905 19.513 17.7668 21.5349 17.7858Z" fill="#00D8FF"/>
</g>
<defs>
<clipPath id="clip0_19_77">
<rect width="41" height="41" fill="white" transform="translate(1.19336 0.808472) rotate(0.537849)"/>
</clipPath>
</defs>
</svg>
