<?xml version="1.0" encoding="UTF-8"?>
<!DOCTYPE svg PUBLIC "-//W3C//DTD SVG 1.1//EN" "http://www.w3.org/Graphics/SVG/1.1/DTD/svg11.dtd">
<svg xmlns="http://www.w3.org/2000/svg" version="1.1" width="256px" height="256px" style="shape-rendering:geometricPrecision; text-rendering:geometricPrecision; image-rendering:optimizeQuality; fill-rule:evenodd; clip-rule:evenodd" xmlns:xlink="http://www.w3.org/1999/xlink">
<g><path style="opacity:0.015" fill="#fefefe" d="M 250.5,34.5 C 250.167,34.5 249.833,34.5 249.5,34.5C 248.694,33.2719 247.694,32.2719 246.5,31.5C 246.5,30.8333 246.167,30.5 245.5,30.5C 245.167,30.5 244.833,30.5 244.5,30.5C 165.833,29.1667 87.1667,29.1667 8.5,30.5C 5.89084,31.4431 3.89084,33.1097 2.5,35.5C 1.83333,35.8333 1.16667,36.1667 0.5,36.5C 0.461409,35.2438 0.961409,34.2438 2,33.5C 2.49981,23.5056 2.66648,13.5056 2.5,3.5C 85.1667,3.5 167.833,3.5 250.5,3.5C 250.5,13.8333 250.5,24.1667 250.5,34.5 Z"/></g>
<g><path style="opacity:1" fill="#bf1829" d="M 101.5,30.5 C 118.5,30.5 135.5,30.5 152.5,30.5C 152.5,33.1667 152.5,35.8333 152.5,38.5C 135.5,38.5 118.5,38.5 101.5,38.5C 101.5,35.8333 101.5,33.1667 101.5,30.5 Z"/></g>
<g><path style="opacity:1" fill="#072a77" d="M 8.5,30.5 C 33.5,30.5 58.5,30.5 83.5,30.5C 83.5,32.8333 83.5,35.1667 83.5,37.5C 60.9938,37.1692 38.6604,37.5026 16.5,38.5C 14.0517,40.2845 11.385,41.6178 8.5,42.5C 6.04616,41.7729 3.71283,40.7729 1.5,39.5C 2.23411,38.2921 2.56745,36.9587 2.5,35.5C 3.89084,33.1097 5.89084,31.4431 8.5,30.5 Z"/></g>
<g><path style="opacity:1" fill="#e2e4e9" d="M 153.5,30.5 C 159.167,30.5 164.833,30.5 170.5,30.5C 170.5,33.1667 170.5,35.8333 170.5,38.5C 170.5,39.8333 170.5,41.1667 170.5,42.5C 170.171,55.0113 170.505,67.3446 171.5,79.5C 171.833,79.5 172.167,79.5 172.5,79.5C 171.791,80.404 170.791,80.7373 169.5,80.5C 169.833,65.4852 169.499,50.4852 168.5,35.5C 163.25,35.8663 158.25,36.8663 153.5,38.5C 153.5,35.8333 153.5,33.1667 153.5,30.5 Z"/></g>
<g><path style="opacity:1" fill="#072a77" d="M 171.5,30.5 C 195.833,30.5 220.167,30.5 244.5,30.5C 244.833,30.5 245.167,30.5 245.5,30.5C 246.167,30.5 246.5,30.8333 246.5,31.5C 247.694,32.2719 248.694,33.2719 249.5,34.5C 250.15,36.4352 250.483,38.4352 250.5,40.5C 248.287,41.7729 245.954,42.7729 243.5,43.5C 241.851,42.5272 240.184,41.5272 238.5,40.5C 237.71,39.5987 236.71,38.9321 235.5,38.5C 214.34,37.5027 193.007,37.1694 171.5,37.5C 171.5,35.1667 171.5,32.8333 171.5,30.5 Z"/></g>
<g><path style="opacity:0.004" fill="#edeeed" d="M 251.5,35.5 C 252.906,35.9731 253.573,36.9731 253.5,38.5C 252.094,38.0269 251.427,37.0269 251.5,35.5 Z"/></g>
<g><path style="opacity:1" fill="#26498f" d="M 83.5,30.5 C 83.8333,30.5 84.1667,30.5 84.5,30.5C 84.5,33.1667 84.5,35.8333 84.5,38.5C 62.5,38.5 40.5,38.5 18.5,38.5C 17.8333,38.5 17.1667,38.5 16.5,38.5C 38.6604,37.5026 60.9938,37.1692 83.5,37.5C 83.5,35.1667 83.5,32.8333 83.5,30.5 Z"/></g>
<g><path style="opacity:1" fill="#fbf9f9" d="M 84.5,30.5 C 90.1667,30.5 95.8333,30.5 101.5,30.5C 101.5,33.1667 101.5,35.8333 101.5,38.5C 101.5,38.8333 101.5,39.1667 101.5,39.5C 101.5,40.1667 101.5,40.8333 101.5,41.5C 101.5,42.5 101.5,43.5 101.5,44.5C 101.5,63.5 101.5,82.5 101.5,101.5C 101.5,102.833 101.5,104.167 101.5,105.5C 68.5,105.5 35.5,105.5 2.5,105.5C 2.16667,105.5 1.83333,105.5 1.5,105.5C 1.5,99.8333 1.5,94.1667 1.5,88.5C 14.5171,88.8325 27.5171,88.4991 40.5,87.5C 40.0431,86.7025 39.3764,86.3691 38.5,86.5C 28.7113,82.1058 19.0446,77.4391 9.5,72.5C 6.99492,70.9886 4.32825,69.6553 1.5,68.5C 1.5,58.8333 1.5,49.1667 1.5,39.5C 3.71283,40.7729 6.04616,41.7729 8.5,42.5C 10.1815,44.0075 12.1815,45.0075 14.5,45.5C 14.8417,46.3382 15.5084,46.6716 16.5,46.5C 38.4209,57.4852 60.4209,68.4852 82.5,79.5C 82.56,80.0431 82.8933,80.3764 83.5,80.5C 84.4992,66.5159 84.8326,52.5159 84.5,38.5C 84.5,35.8333 84.5,33.1667 84.5,30.5 Z"/></g>
<g><path style="opacity:1" fill="#20458c" d="M 170.5,30.5 C 170.833,30.5 171.167,30.5 171.5,30.5C 171.5,32.8333 171.5,35.1667 171.5,37.5C 193.007,37.1694 214.34,37.5027 235.5,38.5C 213.833,38.5 192.167,38.5 170.5,38.5C 170.5,35.8333 170.5,33.1667 170.5,30.5 Z"/></g>
<g><path style="opacity:1" fill="#eb9ea7" d="M 152.5,30.5 C 152.833,30.5 153.167,30.5 153.5,30.5C 153.5,33.1667 153.5,35.8333 153.5,38.5C 153.5,60.5 153.5,82.5 153.5,104.5C 185.833,104.5 218.167,104.5 250.5,104.5C 250.5,104.833 250.5,105.167 250.5,105.5C 218.167,105.5 185.833,105.5 153.5,105.5C 152.503,85.3402 152.17,65.0069 152.5,44.5C 152.5,43.8333 152.5,43.1667 152.5,42.5C 152.5,42.1667 152.5,41.8333 152.5,41.5C 135.866,39.5142 118.866,38.8476 101.5,39.5C 101.5,39.1667 101.5,38.8333 101.5,38.5C 118.5,38.5 135.5,38.5 152.5,38.5C 152.5,35.8333 152.5,33.1667 152.5,30.5 Z"/></g>
<g><path style="opacity:0.563" fill="#090909" d="M 249.5,34.5 C 249.833,34.5 250.167,34.5 250.5,34.5C 251.167,34.5 251.5,34.8333 251.5,35.5C 251.427,37.0269 252.094,38.0269 253.5,38.5C 254.499,99.6644 254.832,160.998 254.5,222.5C 252.791,227.871 249.124,231.205 243.5,232.5C 243.082,231.778 242.416,231.278 241.5,231C 203.167,230.833 164.833,230.667 126.5,230.5C 86.1992,230.515 46.1992,230.848 6.5,231.5C 3.62978,230.567 1.29645,228.9 -0.5,226.5C -0.5,163.167 -0.5,99.8333 -0.5,36.5C -0.166667,36.5 0.166667,36.5 0.5,36.5C 1.16667,36.1667 1.83333,35.8333 2.5,35.5C 2.56745,36.9587 2.23411,38.2921 1.5,39.5C 1.5,49.1667 1.5,58.8333 1.5,68.5C 1.5,74.8333 1.5,81.1667 1.5,87.5C 1.5,87.8333 1.5,88.1667 1.5,88.5C 1.5,94.1667 1.5,99.8333 1.5,105.5C 1.5,122.5 1.5,139.5 1.5,156.5C 1.5,168.833 1.5,181.167 1.5,193.5C 1.5,199.833 1.5,206.167 1.5,212.5C 1.1324,216.044 2.1324,219.044 4.5,221.5C 5.05773,222.79 6.05773,223.623 7.5,224C 32.8311,224.5 58.1645,224.667 83.5,224.5C 83.8333,224.5 84.1667,224.5 84.5,224.5C 90.1667,224.5 95.8333,224.5 101.5,224.5C 118.5,224.5 135.5,224.5 152.5,224.5C 152.833,224.5 153.167,224.5 153.5,224.5C 159.167,224.5 164.833,224.5 170.5,224.5C 195.169,224.667 219.836,224.5 244.5,224C 246.324,223.34 247.657,222.173 248.5,220.5C 249.222,220.082 249.722,219.416 250,218.5C 250.5,209.84 250.666,201.173 250.5,192.5C 250.5,186.5 250.5,180.5 250.5,174.5C 250.5,174.167 250.5,173.833 250.5,173.5C 250.5,168.167 250.5,162.833 250.5,157.5C 250.5,157.167 250.5,156.833 250.5,156.5C 250.5,156.167 250.5,155.833 250.5,155.5C 250.5,139.167 250.5,122.833 250.5,106.5C 250.5,106.167 250.5,105.833 250.5,105.5C 250.5,105.167 250.5,104.833 250.5,104.5C 250.5,92.8333 250.5,81.1667 250.5,69.5C 250.5,63.1667 250.5,56.8333 250.5,50.5C 250.5,47.1667 250.5,43.8333 250.5,40.5C 250.483,38.4352 250.15,36.4352 249.5,34.5 Z"/></g>
<g><path style="opacity:1" fill="#c64d8e" d="M 151.5,214.5 C 151.232,216.099 151.566,217.432 152.5,218.5C 152.5,220.5 152.5,222.5 152.5,224.5C 135.5,224.5 118.5,224.5 101.5,224.5C 101.5,221.5 101.5,218.5 101.5,215.5C 102.222,215.918 102.722,216.584 103,217.5C 103.419,216.328 104.085,215.328 105,214.5C 120.451,215.598 135.951,215.598 151.5,214.5 Z"/></g>
<g><path style="opacity:1" fill="#175db6" d="M 171.5,182.5 C 171.334,191.173 171.5,199.84 172,208.5C 172.333,207.5 172.667,206.5 173,205.5C 177.062,206.433 181.395,206.433 186,205.5C 187.333,206.167 188.667,206.833 190,207.5C 195.346,206.202 201.18,206.202 207.5,207.5C 210.5,207.333 213.5,207.167 216.5,207C 215.748,206.329 215.414,205.496 215.5,204.5C 226.47,209.827 237.47,215.161 248.5,220.5C 247.657,222.173 246.324,223.34 244.5,224C 219.836,224.5 195.169,224.667 170.5,224.5C 170.171,210.323 170.504,196.323 171.5,182.5 Z"/></g>
<g><path style="opacity:1" fill="#185db6" d="M 40.5,203.5 C 42.0443,203.703 43.3777,204.37 44.5,205.5C 57.456,204.254 69.6226,203.587 81,203.5C 81.7083,204.381 82.5416,205.047 83.5,205.5C 83.5,211.833 83.5,218.167 83.5,224.5C 58.1645,224.667 32.8311,224.5 7.5,224C 6.05773,223.623 5.05773,222.79 4.5,221.5C 16.2166,214.975 28.2166,208.975 40.5,203.5 Z"/></g>
<g><path style="opacity:1" fill="#d24681" d="M 101.5,206.5 C 102.268,207.263 102.768,208.263 103,209.5C 103.483,208.552 103.649,207.552 103.5,206.5C 119.5,206.5 135.5,206.5 151.5,206.5C 151.5,209.167 151.5,211.833 151.5,214.5C 135.951,215.598 120.451,215.598 105,214.5C 104.085,215.328 103.419,216.328 103,217.5C 102.722,216.584 102.222,215.918 101.5,215.5C 101.5,212.5 101.5,209.5 101.5,206.5 Z"/></g>
<g><path style="opacity:1" fill="#d13f72" d="M 151.5,192.5 C 151.216,194.415 151.549,196.081 152.5,197.5C 152.5,204.5 152.5,211.5 152.5,218.5C 151.566,217.432 151.232,216.099 151.5,214.5C 151.5,211.833 151.5,209.167 151.5,206.5C 135.5,206.5 119.5,206.5 103.5,206.5C 103.649,207.552 103.483,208.552 103,209.5C 102.768,208.263 102.268,207.263 101.5,206.5C 101.5,202.167 101.5,197.833 101.5,193.5C 117.609,193.613 133.443,193.947 149,194.5C 149.708,193.619 150.542,192.953 151.5,192.5 Z"/></g>
<g><path style="opacity:1" fill="#cd3c6e" d="M 35.5,195.5 C 24.6911,201.405 13.6911,207.072 2.5,212.5C 2.5,206.5 2.5,200.5 2.5,194.5C 4.90315,194.393 6.73649,195.393 8,197.5C 9.66667,196.833 11.3333,196.167 13,195.5C 13.3333,196.167 13.6667,196.833 14,197.5C 15.8082,197.112 17.4748,197.112 19,197.5C 20,196.833 21,196.167 22,195.5C 24.3333,195.833 26.6667,196.167 29,196.5C 30,195.833 31,195.167 32,194.5C 33.0113,195.337 34.1779,195.67 35.5,195.5 Z"/></g>
<g><path style="opacity:1" fill="#6c94cb" d="M 82.5,182.5 C 82.56,181.957 82.8933,181.624 83.5,181.5C 84.4993,195.818 84.8326,210.151 84.5,224.5C 84.1667,224.5 83.8333,224.5 83.5,224.5C 83.5,218.167 83.5,211.833 83.5,205.5C 83.8254,197.648 83.492,189.982 82.5,182.5 Z"/></g>
<g><path style="opacity:1" fill="#ce355c" d="M 20.5,184.5 C 20.3893,185.117 20.056,185.617 19.5,186C 22.3333,186.167 25.1667,186.333 28,186.5C 34.3941,186.179 40.8941,185.845 47.5,185.5C 49.1143,185.803 50.4477,186.47 51.5,187.5C 46.4844,190.674 41.1511,193.341 35.5,195.5C 34.1779,195.67 33.0113,195.337 32,194.5C 31,195.167 30,195.833 29,196.5C 26.6667,196.167 24.3333,195.833 22,195.5C 21,196.167 20,196.833 19,197.5C 17.4748,197.112 15.8082,197.112 14,197.5C 13.6667,196.833 13.3333,196.167 13,195.5C 11.3333,196.167 9.66667,196.833 8,197.5C 6.73649,195.393 4.90315,194.393 2.5,194.5C 2.5,200.5 2.5,206.5 2.5,212.5C 2.16667,212.5 1.83333,212.5 1.5,212.5C 1.5,206.167 1.5,199.833 1.5,193.5C 2.49162,193.672 3.15829,193.338 3.5,192.5C 9.01514,189.577 14.6818,186.91 20.5,184.5 Z"/></g>
<g><path style="opacity:1" fill="#d2345d" d="M 101.5,178.5 C 102.309,180.292 102.809,182.292 103,184.5C 119,183.167 135,181.833 151,180.5C 151.499,184.486 151.666,188.486 151.5,192.5C 150.542,192.953 149.708,193.619 149,194.5C 133.443,193.947 117.609,193.613 101.5,193.5C 101.5,188.5 101.5,183.5 101.5,178.5 Z"/></g>
<g><path style="opacity:1" fill="#e792a2" d="M 153.5,156.5 C 185.833,156.5 218.167,156.5 250.5,156.5C 250.5,156.833 250.5,157.167 250.5,157.5C 218.167,157.5 185.833,157.5 153.5,157.5C 153.5,179.833 153.5,202.167 153.5,224.5C 153.167,224.5 152.833,224.5 152.5,224.5C 152.5,222.5 152.5,220.5 152.5,218.5C 152.5,211.5 152.5,204.5 152.5,197.5C 152.5,190.833 152.5,184.167 152.5,177.5C 152.175,170.313 152.509,163.313 153.5,156.5 Z"/></g>
<g><path style="opacity:1" fill="#cb2b4b" d="M 250.5,174.5 C 250.5,180.5 250.5,186.5 250.5,192.5C 239.164,186.832 227.83,181.165 216.5,175.5C 227.654,174.505 238.988,174.172 250.5,174.5 Z"/></g>
<g><path style="opacity:1" fill="#d12c4c" d="M 101.5,173.5 C 102.222,173.918 102.722,174.584 103,175.5C 119.166,174.826 135.333,174.16 151.5,173.5C 151.232,175.099 151.566,176.432 152.5,177.5C 152.5,184.167 152.5,190.833 152.5,197.5C 151.549,196.081 151.216,194.415 151.5,192.5C 151.666,188.486 151.499,184.486 151,180.5C 135,181.833 119,183.167 103,184.5C 102.809,182.292 102.309,180.292 101.5,178.5C 101.5,176.833 101.5,175.167 101.5,173.5 Z"/></g>
<g><path style="opacity:1" fill="#e7a1ac" d="M 250.5,173.5 C 250.5,173.833 250.5,174.167 250.5,174.5C 238.988,174.172 227.654,174.505 216.5,175.5C 215.624,175.631 214.957,175.298 214.5,174.5C 226.482,173.501 238.482,173.168 250.5,173.5 Z"/></g>
<g><path style="opacity:1" fill="#d1253e" d="M 101.5,160.5 C 102.319,163.305 102.819,166.305 103,169.5C 103.333,167.5 103.667,165.5 104,163.5C 119.422,164.491 134.922,164.824 150.5,164.5C 151.882,164.317 152.215,167.317 151.5,173.5C 135.333,174.16 119.166,174.826 103,175.5C 102.722,174.584 102.222,173.918 101.5,173.5C 101.5,169.167 101.5,164.833 101.5,160.5 Z"/></g>
<g><path style="opacity:1" fill="#fafbfc" d="M 250.5,157.5 C 250.5,162.833 250.5,168.167 250.5,173.5C 238.482,173.168 226.482,173.501 214.5,174.5C 214.957,175.298 215.624,175.631 216.5,175.5C 227.83,181.165 239.164,186.832 250.5,192.5C 250.666,201.173 250.5,209.84 250,218.5C 249.722,219.416 249.222,220.082 248.5,220.5C 237.47,215.161 226.47,209.827 215.5,204.5C 201.086,196.626 186.419,189.293 171.5,182.5C 170.504,196.323 170.171,210.323 170.5,224.5C 164.833,224.5 159.167,224.5 153.5,224.5C 153.5,202.167 153.5,179.833 153.5,157.5C 185.833,157.5 218.167,157.5 250.5,157.5 Z"/></g>
<g><path style="opacity:1" fill="#1653a9" d="M 171.5,182.5 C 186.419,189.293 201.086,196.626 215.5,204.5C 215.414,205.496 215.748,206.329 216.5,207C 213.5,207.167 210.5,207.333 207.5,207.5C 201.18,206.202 195.346,206.202 190,207.5C 188.667,206.833 187.333,206.167 186,205.5C 181.395,206.433 177.062,206.433 173,205.5C 172.667,206.5 172.333,207.5 172,208.5C 171.5,199.84 171.334,191.173 171.5,182.5 Z"/></g>
<g><path style="opacity:1" fill="#fbfafb" d="M 101.5,157.5 C 101.5,158.5 101.5,159.5 101.5,160.5C 101.5,164.833 101.5,169.167 101.5,173.5C 101.5,175.167 101.5,176.833 101.5,178.5C 101.5,183.5 101.5,188.5 101.5,193.5C 101.5,197.833 101.5,202.167 101.5,206.5C 101.5,209.5 101.5,212.5 101.5,215.5C 101.5,218.5 101.5,221.5 101.5,224.5C 95.8333,224.5 90.1667,224.5 84.5,224.5C 84.8326,210.151 84.4993,195.818 83.5,181.5C 82.8933,181.624 82.56,181.957 82.5,182.5C 68.1513,189.008 54.1513,196.008 40.5,203.5C 28.2166,208.975 16.2166,214.975 4.5,221.5C 2.1324,219.044 1.1324,216.044 1.5,212.5C 1.83333,212.5 2.16667,212.5 2.5,212.5C 13.6911,207.072 24.6911,201.405 35.5,195.5C 41.1511,193.341 46.4844,190.674 51.5,187.5C 60.1667,183.5 68.8333,179.5 77.5,175.5C 78.0431,175.44 78.3764,175.107 78.5,174.5C 65.6729,173.175 53.0062,173.175 40.5,174.5C 33.5157,177.325 26.849,180.659 20.5,184.5C 14.6818,186.91 9.01514,189.577 3.5,192.5C 2.50507,181.012 2.17174,169.345 2.5,157.5C 35.5,157.5 68.5,157.5 101.5,157.5 Z"/></g>
<g><path style="opacity:1" fill="#1b52a7" d="M 82.5,182.5 C 83.492,189.982 83.8254,197.648 83.5,205.5C 82.5416,205.047 81.7083,204.381 81,203.5C 69.6226,203.587 57.456,204.254 44.5,205.5C 43.3777,204.37 42.0443,203.703 40.5,203.5C 54.1513,196.008 68.1513,189.008 82.5,182.5 Z"/></g>
<g><path style="opacity:1" fill="#d23150" d="M 40.5,174.5 C 53.0113,174.171 65.3446,174.505 77.5,175.5C 68.8333,179.5 60.1667,183.5 51.5,187.5C 50.4477,186.47 49.1143,185.803 47.5,185.5C 40.8941,185.845 34.3941,186.179 28,186.5C 25.1667,186.333 22.3333,186.167 19.5,186C 20.056,185.617 20.3893,185.117 20.5,184.5C 26.849,180.659 33.5157,177.325 40.5,174.5 Z"/></g>
<g><path style="opacity:1" fill="#eaa4af" d="M 40.5,174.5 C 53.0062,173.175 65.6729,173.175 78.5,174.5C 78.3764,175.107 78.0431,175.44 77.5,175.5C 65.3446,174.505 53.0113,174.171 40.5,174.5 Z"/></g>
<g><path style="opacity:0.682" fill="#c7acaf" d="M 1.5,156.5 C 1.83333,156.5 2.16667,156.5 2.5,156.5C 35.6709,156.168 68.6709,156.502 101.5,157.5C 68.5,157.5 35.5,157.5 2.5,157.5C 2.17174,169.345 2.50507,181.012 3.5,192.5C 3.15829,193.338 2.49162,193.672 1.5,193.5C 1.5,181.167 1.5,168.833 1.5,156.5 Z"/></g>
<g><path style="opacity:1" fill="#bd1326" d="M 250.5,106.5 C 250.5,122.833 250.5,139.167 250.5,155.5C 248.5,155.5 246.5,155.5 244.5,155.5C 244.5,139.167 244.5,122.833 244.5,106.5C 246.5,106.5 248.5,106.5 250.5,106.5 Z"/></g>
<g><path style="opacity:1" fill="#ce192d" d="M 153.5,105.5 C 185.833,105.5 218.167,105.5 250.5,105.5C 250.5,105.833 250.5,106.167 250.5,106.5C 248.5,106.5 246.5,106.5 244.5,106.5C 244.5,122.833 244.5,139.167 244.5,155.5C 246.5,155.5 248.5,155.5 250.5,155.5C 250.5,155.833 250.5,156.167 250.5,156.5C 218.167,156.5 185.833,156.5 153.5,156.5C 169.328,155.669 185.328,155.169 201.5,155C 199.524,139.073 198.857,122.907 199.5,106.5C 183.991,106.83 168.658,106.496 153.5,105.5 Z"/></g>
<g><path style="opacity:1" fill="#b61224" d="M 1.5,105.5 C 1.83333,105.5 2.16667,105.5 2.5,105.5C 4.26465,106.461 6.26465,106.795 8.5,106.5C 8.5,122.833 8.5,139.167 8.5,155.5C 6.26465,155.205 4.26465,155.539 2.5,156.5C 2.16667,156.5 1.83333,156.5 1.5,156.5C 1.5,139.5 1.5,122.5 1.5,105.5 Z"/></g>
<g><path style="opacity:1" fill="#d11f33" d="M 152.5,44.5 C 152.17,65.0069 152.503,85.3402 153.5,105.5C 168.658,106.496 183.991,106.83 199.5,106.5C 198.857,122.907 199.524,139.073 201.5,155C 185.328,155.169 169.328,155.669 153.5,156.5C 152.509,163.313 152.175,170.313 152.5,177.5C 151.566,176.432 151.232,175.099 151.5,173.5C 152.215,167.317 151.882,164.317 150.5,164.5C 134.922,164.824 119.422,164.491 104,163.5C 103.667,165.5 103.333,167.5 103,169.5C 102.819,166.305 102.319,163.305 101.5,160.5C 101.5,159.5 101.5,158.5 101.5,157.5C 68.6709,156.502 35.6709,156.168 2.5,156.5C 4.26465,155.539 6.26465,155.205 8.5,155.5C 8.5,139.167 8.5,122.833 8.5,106.5C 6.26465,106.795 4.26465,106.461 2.5,105.5C 35.5,105.5 68.5,105.5 101.5,105.5C 101.5,104.167 101.5,102.833 101.5,101.5C 117.868,96.7597 134.535,93.4264 151.5,91.5C 151.17,75.6578 151.504,59.9911 152.5,44.5 Z"/></g>
<g><path style="opacity:1" fill="#eba8b1" d="M 38.5,86.5 C 39.3764,86.3691 40.0431,86.7025 40.5,87.5C 27.5171,88.4991 14.5171,88.8325 1.5,88.5C 1.5,88.1667 1.5,87.8333 1.5,87.5C 4.16667,87.5 6.83333,87.5 9.5,87.5C 19.3478,87.8271 29.0144,87.4938 38.5,86.5 Z"/></g>
<g><path style="opacity:1" fill="#d4243a" d="M 9.5,72.5 C 19.0446,77.4391 28.7113,82.1058 38.5,86.5C 29.0144,87.4938 19.3478,87.8271 9.5,87.5C 9.5,82.5 9.5,77.5 9.5,72.5 Z"/></g>
<g><path style="opacity:1" fill="#ba1425" d="M 1.5,68.5 C 4.32825,69.6553 6.99492,70.9886 9.5,72.5C 9.5,77.5 9.5,82.5 9.5,87.5C 6.83333,87.5 4.16667,87.5 1.5,87.5C 1.5,81.1667 1.5,74.8333 1.5,68.5 Z"/></g>
<g><path style="opacity:1" fill="#d62b40" d="M 244.5,53.5 C 242.49,58.9536 241.99,64.6202 243,70.5C 243.671,71.2524 244.504,71.5858 245.5,71.5C 235.041,76.5629 224.708,81.8963 214.5,87.5C 201.989,87.8286 189.655,87.4952 177.5,86.5C 199.706,75.2304 222.039,64.2304 244.5,53.5 Z"/></g>
<g><path style="opacity:1" fill="#be1728" d="M 250.5,50.5 C 250.5,56.8333 250.5,63.1667 250.5,69.5C 248.716,69.8925 247.05,70.5592 245.5,71.5C 244.504,71.5858 243.671,71.2524 243,70.5C 241.99,64.6202 242.49,58.9536 244.5,53.5C 246.181,51.9925 248.181,50.9925 250.5,50.5 Z"/></g>
<g><path style="opacity:1" fill="#d72c42" d="M 152.5,42.5 C 152.5,43.1667 152.5,43.8333 152.5,44.5C 151.504,59.9911 151.17,75.6578 151.5,91.5C 134.535,93.4264 117.868,96.7597 101.5,101.5C 101.5,82.5 101.5,63.5 101.5,44.5C 118.5,43.8333 135.5,43.1667 152.5,42.5 Z"/></g>
<g><path style="opacity:1" fill="#1b4995" d="M 83.5,43.5 C 83.8284,55.6783 83.4951,67.6783 82.5,79.5C 60.4209,68.4852 38.4209,57.4852 16.5,46.5C 16.3893,45.8826 16.056,45.3826 15.5,45C 18.5252,44.6393 21.5252,44.1393 24.5,43.5C 44.112,43.5918 63.7786,43.5918 83.5,43.5 Z"/></g>
<g><path style="opacity:1" fill="#e0576a" d="M 101.5,41.5 C 118.5,41.5 135.5,41.5 152.5,41.5C 152.5,41.8333 152.5,42.1667 152.5,42.5C 135.5,43.1667 118.5,43.8333 101.5,44.5C 101.5,43.5 101.5,42.5 101.5,41.5 Z"/></g>
<g><path style="opacity:1" fill="#3663a4" d="M 83.5,42.5 C 83.5,42.8333 83.5,43.1667 83.5,43.5C 63.7786,43.5918 44.112,43.5918 24.5,43.5C 21.5252,44.1393 18.5252,44.6393 15.5,45C 16.056,45.3826 16.3893,45.8826 16.5,46.5C 15.5084,46.6716 14.8417,46.3382 14.5,45.5C 14.3893,44.8826 14.056,44.3826 13.5,44C 14.8333,43.6667 16.1667,43.3333 17.5,43C 39.4975,42.5 61.4975,42.3334 83.5,42.5 Z"/></g>
<g><path style="opacity:1" fill="#5e82b6" d="M 16.5,38.5 C 17.1667,38.5 17.8333,38.5 18.5,38.5C 18.3893,39.1174 18.056,39.6174 17.5,40C 39.8561,39.8417 61.8561,40.675 83.5,42.5C 61.4975,42.3334 39.4975,42.5 17.5,43C 16.1667,43.3333 14.8333,43.6667 13.5,44C 14.056,44.3826 14.3893,44.8826 14.5,45.5C 12.1815,45.0075 10.1815,44.0075 8.5,42.5C 11.385,41.6178 14.0517,40.2845 16.5,38.5 Z"/></g>
<g><path style="opacity:1" fill="#e78693" d="M 101.5,39.5 C 118.866,38.8476 135.866,39.5142 152.5,41.5C 135.5,41.5 118.5,41.5 101.5,41.5C 101.5,40.8333 101.5,40.1667 101.5,39.5 Z"/></g>
<g><path style="opacity:1" fill="#86a2ca" d="M 170.5,38.5 C 192.167,38.5 213.833,38.5 235.5,38.5C 236.71,38.9321 237.71,39.5987 238.5,40.5C 215.931,41.1766 193.265,41.8432 170.5,42.5C 170.5,41.1667 170.5,39.8333 170.5,38.5 Z"/></g>
<g><path style="opacity:1" fill="#8ca6cc" d="M 18.5,38.5 C 40.5,38.5 62.5,38.5 84.5,38.5C 84.8326,52.5159 84.4992,66.5159 83.5,80.5C 82.8933,80.3764 82.56,80.0431 82.5,79.5C 83.4951,67.6783 83.8284,55.6783 83.5,43.5C 83.5,43.1667 83.5,42.8333 83.5,42.5C 61.8561,40.675 39.8561,39.8417 17.5,40C 18.056,39.6174 18.3893,39.1174 18.5,38.5 Z"/></g>
<g><path style="opacity:1" fill="#faf9fa" d="M 172.5,79.5 C 194.195,68.8186 215.861,57.8186 237.5,46.5C 239.574,45.4861 241.574,44.4861 243.5,43.5C 245.954,42.7729 248.287,41.7729 250.5,40.5C 250.5,43.8333 250.5,47.1667 250.5,50.5C 248.181,50.9925 246.181,51.9925 244.5,53.5C 222.039,64.2304 199.706,75.2304 177.5,86.5C 176.624,86.3691 175.957,86.7025 175.5,87.5C 188.661,88.8252 201.661,88.8252 214.5,87.5C 224.708,81.8963 235.041,76.5629 245.5,71.5C 247.05,70.5592 248.716,69.8925 250.5,69.5C 250.5,81.1667 250.5,92.8333 250.5,104.5C 218.167,104.5 185.833,104.5 153.5,104.5C 153.5,82.5 153.5,60.5 153.5,38.5C 158.25,36.8663 163.25,35.8663 168.5,35.5C 169.499,50.4852 169.833,65.4852 169.5,80.5C 170.791,80.7373 171.791,80.404 172.5,79.5 Z"/></g>
<g><path style="opacity:1" fill="#efacb4" d="M 177.5,86.5 C 189.655,87.4952 201.989,87.8286 214.5,87.5C 201.661,88.8252 188.661,88.8252 175.5,87.5C 175.957,86.7025 176.624,86.3691 177.5,86.5 Z"/></g>
<g><path style="opacity:1" fill="#164894" d="M 237.5,46.5 C 215.861,57.8186 194.195,68.8186 172.5,79.5C 172.167,79.5 171.833,79.5 171.5,79.5C 171.5,67.5 171.5,55.5 171.5,43.5C 188.411,43.8251 205.244,43.4918 222,42.5C 226.452,43.1409 230.952,43.8076 235.5,44.5C 236.243,45.1818 236.909,45.8485 237.5,46.5 Z"/></g>
<g><path style="opacity:1" fill="#456ba8" d="M 238.5,40.5 C 240.184,41.5272 241.851,42.5272 243.5,43.5C 241.574,44.4861 239.574,45.4861 237.5,46.5C 236.909,45.8485 236.243,45.1818 235.5,44.5C 230.952,43.8076 226.452,43.1409 222,42.5C 205.244,43.4918 188.411,43.8251 171.5,43.5C 171.5,55.5 171.5,67.5 171.5,79.5C 170.505,67.3446 170.171,55.0113 170.5,42.5C 193.265,41.8432 215.931,41.1766 238.5,40.5 Z"/></g>
<g><path style="opacity:0.011" fill="#f8f8f8" d="M 254.5,222.5 C 254.701,225.765 253.534,228.431 251,230.5C 250.5,237.492 250.334,244.492 250.5,251.5C 167.833,251.5 85.1667,251.5 2.5,251.5C 2.66625,244.825 2.49958,238.158 2,231.5C 1.14825,230.429 0.314913,229.429 -0.5,228.5C -0.5,227.833 -0.5,227.167 -0.5,226.5C 1.29645,228.9 3.62978,230.567 6.5,231.5C 9.2281,232.205 12.0614,232.872 15,233.5C 89.8333,232.168 164.667,232.168 239.5,233.5C 240.568,232.566 241.901,232.232 243.5,232.5C 249.124,231.205 252.791,227.871 254.5,222.5 Z"/></g>
<g><path style="opacity:0.135" fill="#242424" d="M 243.5,232.5 C 241.901,232.232 240.568,232.566 239.5,233.5C 164.667,232.168 89.8333,232.168 15,233.5C 12.0614,232.872 9.2281,232.205 6.5,231.5C 46.1992,230.848 86.1992,230.515 126.5,230.5C 164.833,230.667 203.167,230.833 241.5,231C 242.416,231.278 243.082,231.778 243.5,232.5 Z"/></g>
</svg>
