<?xml version="1.0" encoding="UTF-8"?>
<!DOCTYPE svg PUBLIC "-//W3C//DTD SVG 1.1//EN" "http://www.w3.org/Graphics/SVG/1.1/DTD/svg11.dtd">
<svg xmlns="http://www.w3.org/2000/svg" version="1.1" width="256px" height="256px" style="shape-rendering:geometricPrecision; text-rendering:geometricPrecision; image-rendering:optimizeQuality; fill-rule:evenodd; clip-rule:evenodd" xmlns:xlink="http://www.w3.org/1999/xlink">
<g><path style="opacity:0.015" fill="#fefefe" d="M 250.5,34.5 C 249.128,33.4884 247.795,32.4884 246.5,31.5C 246.5,30.8333 246.167,30.5 245.5,30.5C 245.167,30.5 244.833,30.5 244.5,30.5C 165.833,29.1667 87.1667,29.1667 8.5,30.5C 6.11843,31.3507 4.11843,32.684 2.5,34.5C 2.16667,34.5 1.83333,34.5 1.5,34.5C 2.47498,24.2487 2.80832,13.9154 2.5,3.5C 85.1667,3.5 167.833,3.5 250.5,3.5C 250.5,13.8333 250.5,24.1667 250.5,34.5 Z"/></g>
<g><path style="opacity:1" fill="#d8d7e2" d="M 8.5,30.5 C 87.1667,30.5 165.833,30.5 244.5,30.5C 244.833,30.5 245.167,30.5 245.5,30.5C 246.167,30.5 246.5,30.8333 246.5,31.5C 247.795,32.4884 249.128,33.4884 250.5,34.5C 251.167,34.5 251.5,34.8333 251.5,35.5C 250.503,55.3264 250.17,75.3264 250.5,95.5C 167.5,95.5 84.5,95.5 1.5,95.5C 1.20175,75.1332 1.53508,54.7998 2.5,34.5C 4.11843,32.684 6.11843,31.3507 8.5,30.5 Z"/></g>
<g><path style="opacity:1" fill="#eeeeee" d="M 245.5,94.5 C 244.987,76.1498 244.154,57.8165 243,39.5C 242.167,38.6667 241.333,37.8333 240.5,37C 227.258,36.8236 214.092,36.3236 201,35.5C 151,36.8333 101,36.8333 51,35.5C 38.242,36.3234 25.4086,36.8234 12.5,37C 9.3233,38.8491 7.8233,41.6824 8,45.5C 7.50007,61.8299 7.3334,78.1633 7.5,94.5C 6.12656,94.6567 4.79323,94.49 3.5,94C 4.32549,77.9074 4.82549,61.7407 5,45.5C 5.07607,39.4768 7.9094,35.6435 13.5,34C 51.1667,33.8333 88.8333,33.6667 126.5,33.5C 165.225,33.342 203.892,33.842 242.5,35C 244.81,36.6374 246.31,38.804 247,41.5C 247.167,50.3333 247.333,59.1667 247.5,68C 247.498,77.1929 246.832,86.0262 245.5,94.5 Z"/></g>
<g><path style="opacity:0.551" fill="#090809" d="M 1.5,34.5 C 1.83333,34.5 2.16667,34.5 2.5,34.5C 1.53508,54.7998 1.20175,75.1332 1.5,95.5C 1.5,116.833 1.5,138.167 1.5,159.5C 1.16971,178.674 1.50304,197.674 2.5,216.5C 2.26269,217.791 2.59603,218.791 3.5,219.5C 4.21873,221.888 5.88539,223.388 8.5,224C 87.1667,224.667 165.833,224.667 244.5,224C 246.66,223.004 248.327,221.504 249.5,219.5C 250.436,215.265 250.769,210.931 250.5,206.5C 250.5,203.833 250.5,201.167 250.5,198.5C 250.5,197.167 250.5,195.833 250.5,194.5C 250.5,191.167 250.5,187.833 250.5,184.5C 250.5,176.5 250.5,168.5 250.5,160.5C 250.5,160.167 250.5,159.833 250.5,159.5C 250.5,138.167 250.5,116.833 250.5,95.5C 250.17,75.3264 250.503,55.3264 251.5,35.5C 252.79,36.0577 253.623,37.0577 254,38.5C 254.5,100.166 254.667,161.832 254.5,223.5C 252.515,223.859 251.849,224.692 252.5,226C 251.207,226.49 249.873,226.657 248.5,226.5C 247.956,228.716 246.956,230.716 245.5,232.5C 245.167,232.5 244.833,232.5 244.5,232.5C 206.107,231.185 167.607,230.518 129,230.5C 87.2577,230.532 46.2577,230.865 6,231.5C 5.11901,228.115 2.95235,226.448 -0.5,226.5C -0.5,163.167 -0.5,99.8333 -0.5,36.5C 0.166667,35.8333 0.833333,35.1667 1.5,34.5 Z"/></g>
<g><path style="opacity:1" fill="#f88221" d="M 249.5,219.5 C 248.327,221.504 246.66,223.004 244.5,224C 165.833,224.667 87.1667,224.667 8.5,224C 5.88539,223.388 4.21873,221.888 3.5,219.5C 6.2281,218.795 9.06143,218.128 12,217.5C 84.4147,217.368 156.915,217.535 229.5,218C 236.246,218.205 242.913,218.705 249.5,219.5 Z"/></g>
<g><path style="opacity:1" fill="#fe721e" d="M 250.5,206.5 C 250.769,210.931 250.436,215.265 249.5,219.5C 242.913,218.705 236.246,218.205 229.5,218C 156.915,217.535 84.4147,217.368 12,217.5C 9.06143,218.128 6.2281,218.795 3.5,219.5C 2.59603,218.791 2.26269,217.791 2.5,216.5C 2.5,213.5 2.5,210.5 2.5,207.5C 3.26791,208.263 3.76791,209.263 4,210.5C 4.33333,210.167 4.66667,209.833 5,209.5C 6.08524,210.293 7.2519,210.96 8.5,211.5C 21.0924,209.976 33.7591,209.143 46.5,209C 99.8333,208.333 153.167,208.333 206.5,209C 220.042,209.227 233.208,210.06 246,211.5C 248.083,210.901 249.583,209.235 250.5,206.5 Z"/></g>
<g><path style="opacity:1" fill="#fe641c" d="M 2.5,196.5 C 3.22158,196.918 3.72158,197.584 4,198.5C 4.33333,198.167 4.66667,197.833 5,197.5C 5.94325,200.4 7.60991,202.733 10,204.5C 48.3955,203.072 87.0622,202.406 126,202.5C 164.197,202.399 202.364,203.065 240.5,204.5C 242.425,204.41 243.592,203.41 244,201.5C 244.805,203.901 245.638,203.734 246.5,201C 246.167,200.667 245.833,200.333 245.5,200C 246.667,199.5 247.5,198.667 248,197.5C 248.671,198.252 249.504,198.586 250.5,198.5C 250.5,201.167 250.5,203.833 250.5,206.5C 249.583,209.235 248.083,210.901 246,211.5C 233.208,210.06 220.042,209.227 206.5,209C 153.167,208.333 99.8333,208.333 46.5,209C 33.7591,209.143 21.0924,209.976 8.5,211.5C 7.2519,210.96 6.08524,210.293 5,209.5C 4.66667,209.833 4.33333,210.167 4,210.5C 3.76791,209.263 3.26791,208.263 2.5,207.5C 2.5,203.833 2.5,200.167 2.5,196.5 Z"/></g>
<g><path style="opacity:1" fill="#fe581a" d="M 2.5,191.5 C 3.74947,192.778 5.24947,193.778 7,194.5C 7.48278,195.448 7.64945,196.448 7.5,197.5C 9.12377,197.36 10.2904,198.027 11,199.5C 11.3333,198.833 11.6667,198.167 12,197.5C 15.5102,197.51 19.1769,197.843 23,198.5C 34.4331,198.241 45.7665,197.241 57,195.5C 103,196.833 149,196.833 195,195.5C 207.396,197.331 219.896,198.331 232.5,198.5C 235.939,198.446 239.106,197.78 242,196.5C 242.414,196.957 242.914,197.291 243.5,197.5C 245.459,196.252 246.959,194.585 248,192.5C 248.708,193.381 249.542,194.047 250.5,194.5C 250.5,195.833 250.5,197.167 250.5,198.5C 249.504,198.586 248.671,198.252 248,197.5C 247.5,198.667 246.667,199.5 245.5,200C 245.833,200.333 246.167,200.667 246.5,201C 245.638,203.734 244.805,203.901 244,201.5C 243.592,203.41 242.425,204.41 240.5,204.5C 202.364,203.065 164.197,202.399 126,202.5C 87.0622,202.406 48.3955,203.072 10,204.5C 7.60991,202.733 5.94325,200.4 5,197.5C 4.66667,197.833 4.33333,198.167 4,198.5C 3.72158,197.584 3.22158,196.918 2.5,196.5C 2.5,194.833 2.5,193.167 2.5,191.5 Z"/></g>
<g><path style="opacity:1" fill="#fe4b18" d="M 2.5,180.5 C 3.50926,181.935 4.84259,182.769 6.5,183C 5.08444,184.915 5.41777,186.415 7.5,187.5C 6.29354,188.88 6.62688,190.047 8.5,191C 10.0344,191.923 11.701,192.423 13.5,192.5C 20.1466,191.785 26.8132,191.285 33.5,191C 95.1667,190.333 156.833,190.333 218.5,191C 225.187,191.285 231.853,191.785 238.5,192.5C 240.593,192.514 242.426,191.848 244,190.5C 244.333,190.833 244.667,191.167 245,191.5C 245.49,190.207 245.657,188.873 245.5,187.5C 246.441,184.875 247.607,184.875 249,187.5C 249.232,186.263 249.732,185.263 250.5,184.5C 250.5,187.833 250.5,191.167 250.5,194.5C 249.542,194.047 248.708,193.381 248,192.5C 246.959,194.585 245.459,196.252 243.5,197.5C 242.914,197.291 242.414,196.957 242,196.5C 239.106,197.78 235.939,198.446 232.5,198.5C 219.896,198.331 207.396,197.331 195,195.5C 149,196.833 103,196.833 57,195.5C 45.7665,197.241 34.4331,198.241 23,198.5C 19.1769,197.843 15.5102,197.51 12,197.5C 11.6667,198.167 11.3333,198.833 11,199.5C 10.2904,198.027 9.12377,197.36 7.5,197.5C 7.64945,196.448 7.48278,195.448 7,194.5C 5.24947,193.778 3.74947,192.778 2.5,191.5C 2.5,187.833 2.5,184.167 2.5,180.5 Z"/></g>
<g><path style="opacity:1" fill="#fe3f17" d="M 245.5,187.5 C 245.657,188.873 245.49,190.207 245,191.5C 244.667,191.167 244.333,190.833 244,190.5C 242.426,191.848 240.593,192.514 238.5,192.5C 231.853,191.785 225.187,191.285 218.5,191C 156.833,190.333 95.1667,190.333 33.5,191C 26.8132,191.285 20.1466,191.785 13.5,192.5C 11.701,192.423 10.0344,191.923 8.5,191C 6.62688,190.047 6.29354,188.88 7.5,187.5C 14.605,185.867 22.105,185.534 30,186.5C 41.9895,185.649 53.9895,184.982 66,184.5C 106.167,185.83 146.334,185.83 186.5,184.5C 198.343,185.001 210.176,185.667 222,186.5C 229.383,186.057 236.716,185.723 244,185.5C 244.717,186.044 245.217,186.711 245.5,187.5 Z"/></g>
<g><path style="opacity:1" fill="#fd2b13" d="M 8.5,160.5 C 8.33407,165.511 8.50074,170.511 9,175.5C 9.33333,174.833 9.66667,174.167 10,173.5C 10.6739,174.578 11.6739,175.245 13,175.5C 16.4813,174.877 19.9813,174.377 23.5,174C 23.1667,173.667 22.8333,173.333 22.5,173C 91.5,171 160.5,171 229.5,173C 229.167,173.333 228.833,173.667 228.5,174C 232.195,174.318 235.862,174.818 239.5,175.5C 240.647,175.182 241.481,174.516 242,173.5C 242.333,173.833 242.667,174.167 243,174.5C 244.404,169.427 244.904,164.76 244.5,160.5C 246.5,160.5 248.5,160.5 250.5,160.5C 250.5,168.5 250.5,176.5 250.5,184.5C 249.732,185.263 249.232,186.263 249,187.5C 247.607,184.875 246.441,184.875 245.5,187.5C 245.217,186.711 244.717,186.044 244,185.5C 236.716,185.723 229.383,186.057 222,186.5C 210.176,185.667 198.343,185.001 186.5,184.5C 146.334,185.83 106.167,185.83 66,184.5C 53.9895,184.982 41.9895,185.649 30,186.5C 22.105,185.534 14.605,185.867 7.5,187.5C 5.41777,186.415 5.08444,184.915 6.5,183C 4.84259,182.769 3.50926,181.935 2.5,180.5C 2.5,173.833 2.5,167.167 2.5,160.5C 4.5,160.5 6.5,160.5 8.5,160.5 Z"/></g>
<g><path style="opacity:1" fill="#fe1a10" d="M 8.5,160.5 C 87.1667,160.5 165.833,160.5 244.5,160.5C 244.904,164.76 244.404,169.427 243,174.5C 242.667,174.167 242.333,173.833 242,173.5C 241.481,174.516 240.647,175.182 239.5,175.5C 235.862,174.818 232.195,174.318 228.5,174C 228.833,173.667 229.167,173.333 229.5,173C 160.5,171 91.5,171 22.5,173C 22.8333,173.333 23.1667,173.667 23.5,174C 19.9813,174.377 16.4813,174.877 13,175.5C 11.6739,175.245 10.6739,174.578 10,173.5C 9.66667,174.167 9.33333,174.833 9,175.5C 8.50074,170.511 8.33407,165.511 8.5,160.5 Z"/></g>
<g><path style="opacity:0.682" fill="#a40731" d="M 1.5,159.5 C 3.5,159.5 5.5,159.5 7.5,159.5C 86.5,159.5 165.5,159.5 244.5,159.5C 246.5,159.5 248.5,159.5 250.5,159.5C 250.5,159.833 250.5,160.167 250.5,160.5C 248.5,160.5 246.5,160.5 244.5,160.5C 165.833,160.5 87.1667,160.5 8.5,160.5C 6.5,160.5 4.5,160.5 2.5,160.5C 2.5,167.167 2.5,173.833 2.5,180.5C 2.5,184.167 2.5,187.833 2.5,191.5C 2.5,193.167 2.5,194.833 2.5,196.5C 2.5,200.167 2.5,203.833 2.5,207.5C 2.5,210.5 2.5,213.5 2.5,216.5C 1.50304,197.674 1.16971,178.674 1.5,159.5 Z"/></g>
<g><path style="opacity:1" fill="#0c0be8" d="M 1.5,95.5 C 84.5,95.5 167.5,95.5 250.5,95.5C 250.5,116.833 250.5,138.167 250.5,159.5C 248.5,159.5 246.5,159.5 244.5,159.5C 246.471,138.732 247.138,117.732 246.5,96.5C 166.833,96.5 87.1667,96.5 7.5,96.5C 7.5,117.5 7.5,138.5 7.5,159.5C 5.5,159.5 3.5,159.5 1.5,159.5C 1.5,138.167 1.5,116.833 1.5,95.5 Z"/></g>
<g><path style="opacity:1" fill="#1010fe" d="M 244.5,159.5 C 165.5,159.5 86.5,159.5 7.5,159.5C 7.5,138.5 7.5,117.5 7.5,96.5C 87.1667,96.5 166.833,96.5 246.5,96.5C 247.138,117.732 246.471,138.732 244.5,159.5 Z"/></g>
<g><path style="opacity:1" fill="#fefefe" d="M 245.5,94.5 C 166.167,94.5 86.8333,94.5 7.5,94.5C 7.3334,78.1633 7.50007,61.8299 8,45.5C 7.8233,41.6824 9.3233,38.8491 12.5,37C 25.4086,36.8234 38.242,36.3234 51,35.5C 101,36.8333 151,36.8333 201,35.5C 214.092,36.3236 227.258,36.8236 240.5,37C 241.333,37.8333 242.167,38.6667 243,39.5C 244.154,57.8165 244.987,76.1498 245.5,94.5 Z"/></g>
<g><path style="opacity:0.102" fill="#4c4c4c" d="M 254.5,223.5 C 254.445,226.614 253.112,228.948 250.5,230.5C 248.95,231.441 247.284,232.107 245.5,232.5C 246.956,230.716 247.956,228.716 248.5,226.5C 249.873,226.657 251.207,226.49 252.5,226C 251.849,224.692 252.515,223.859 254.5,223.5 Z"/></g>
<g><path style="opacity:0.011" fill="#f9f9f9" d="M -0.5,228.5 C -0.5,228.167 -0.5,227.833 -0.5,227.5C 1.59908,228.428 3.26575,229.928 4.5,232C 6.13677,232.601 7.80343,233.101 9.5,233.5C 88.0191,232.508 166.352,232.175 244.5,232.5C 244.833,232.5 245.167,232.5 245.5,232.5C 247.284,232.107 248.95,231.441 250.5,230.5C 250.5,237.5 250.5,244.5 250.5,251.5C 167.833,251.5 85.1667,251.5 2.5,251.5C 2.66625,244.825 2.49958,238.158 2,231.5C 1.14825,230.429 0.314913,229.429 -0.5,228.5 Z"/></g>
<g><path style="opacity:0.137" fill="#272727" d="M -0.5,227.5 C -0.5,227.167 -0.5,226.833 -0.5,226.5C 2.95235,226.448 5.11901,228.115 6,231.5C 46.2577,230.865 87.2577,230.532 129,230.5C 167.607,230.518 206.107,231.185 244.5,232.5C 166.352,232.175 88.0191,232.508 9.5,233.5C 7.80343,233.101 6.13677,232.601 4.5,232C 3.26575,229.928 1.59908,228.428 -0.5,227.5 Z"/></g>
</svg>
