<svg width="41" height="41" viewBox="0 0 41 41" fill="none" xmlns="http://www.w3.org/2000/svg">
<g clip-path="url(#clip0_19_111)">
<path fill-rule="evenodd" clip-rule="evenodd" d="M39.6116 18.7251L22.198 1.31279C21.1959 0.309799 19.5693 0.309799 18.5658 1.31279L14.9499 4.92873L19.5369 9.51571C20.6029 9.15556 21.8251 9.39712 22.675 10.2469C23.5287 11.102 23.7685 12.3348 23.3996 13.4043L27.8203 17.825C28.8898 17.4565 30.1239 17.695 30.9781 18.5505C32.1719 19.7439 32.1719 21.6781 30.9781 22.8723C29.7839 24.0665 27.8496 24.0665 26.655 22.8723C25.757 21.9735 25.5352 20.6545 25.9898 19.5483L21.8671 15.4256L21.8667 26.2747C22.1577 26.4191 22.4325 26.6112 22.675 26.8528C23.8688 28.0461 23.8688 29.9803 22.675 31.1754C21.4807 32.3692 19.5456 32.3692 18.3532 31.1754C17.1594 29.9803 17.1594 28.0461 18.3532 26.8528C18.6481 26.5583 18.9894 26.3355 19.3535 26.1859V15.2357C18.9894 15.0869 18.6486 14.8654 18.3532 14.5687C17.4486 13.6655 17.2311 12.3383 17.6946 11.2276L13.1732 6.70541L1.23316 18.6446C0.229733 19.6485 0.229733 21.275 1.23316 22.278L18.6468 39.6908C19.6494 40.6938 21.2755 40.6938 22.2794 39.6908L39.6116 22.359C40.6146 21.3556 40.6146 19.7281 39.6116 18.7251Z" fill="#DE4C36"/>
</g>
<defs>
<clipPath id="clip0_19_111">
<rect width="40.0391" height="39.8833" fill="white" transform="translate(0.480469 0.560547)"/>
</clipPath>
</defs>
</svg>
